<mxfile host="app.diagrams.net" modified="2021-11-11T00:15:47.970Z" agent="5.0 (Windows NT 10.0; Win64; x64) AppleWebKit/537.36 (KHTML, like Gecko) Chrome/95.0.4638.69 Safari/537.36" etag="9V9EemdRpppKrq_GuXTg" version="15.7.3" type="github" pages="2">
  <diagram id="WiW1dt4rwBZ5oRVmD_iz" name="Page-1">
    <mxGraphModel dx="1382" dy="677" grid="1" gridSize="10" guides="1" tooltips="1" connect="1" arrows="1" fold="1" page="1" pageScale="1" pageWidth="600" pageHeight="300" math="0" shadow="0">
      <root>
        <mxCell id="0" />
        <mxCell id="1" parent="0" />
        <mxCell id="X48cYuM6y2Ta0CUNgX4l-2" value="&lt;font style=&quot;font-size: 20px&quot;&gt;X&lt;/font&gt;" style="rounded=1;whiteSpace=wrap;html=1;fillColor=#d5e8d4;strokeColor=#82b366;" parent="1" vertex="1">
          <mxGeometry x="-30" y="20" width="40" height="40" as="geometry" />
        </mxCell>
        <mxCell id="X48cYuM6y2Ta0CUNgX4l-4" value="+5" style="ellipse;whiteSpace=wrap;html=1;aspect=fixed;fillColor=#dae8fc;strokeColor=#6c8ebf;" parent="1" vertex="1">
          <mxGeometry x="120" y="-160" width="40" height="40" as="geometry" />
        </mxCell>
        <mxCell id="X48cYuM6y2Ta0CUNgX4l-9" value="" style="endArrow=classic;html=1;rounded=0;entryX=0;entryY=0.5;entryDx=0;entryDy=0;exitX=1;exitY=0.5;exitDx=0;exitDy=0;" parent="1" source="X48cYuM6y2Ta0CUNgX4l-2" target="X48cYuM6y2Ta0CUNgX4l-4" edge="1">
          <mxGeometry width="50" height="50" relative="1" as="geometry">
            <mxPoint x="60" y="40" as="sourcePoint" />
            <mxPoint x="110" y="-10" as="targetPoint" />
          </mxGeometry>
        </mxCell>
        <mxCell id="X48cYuM6y2Ta0CUNgX4l-10" value="-5" style="ellipse;whiteSpace=wrap;html=1;aspect=fixed;fillColor=#dae8fc;strokeColor=#6c8ebf;" parent="1" vertex="1">
          <mxGeometry x="120" y="-120" width="40" height="40" as="geometry" />
        </mxCell>
        <mxCell id="X48cYuM6y2Ta0CUNgX4l-12" value="" style="endArrow=classic;html=1;rounded=0;entryX=0;entryY=0.5;entryDx=0;entryDy=0;exitX=1;exitY=0.5;exitDx=0;exitDy=0;" parent="1" source="X48cYuM6y2Ta0CUNgX4l-2" target="X48cYuM6y2Ta0CUNgX4l-10" edge="1">
          <mxGeometry width="50" height="50" relative="1" as="geometry">
            <mxPoint x="60" y="50" as="sourcePoint" />
            <mxPoint x="110" as="targetPoint" />
          </mxGeometry>
        </mxCell>
        <mxCell id="X48cYuM6y2Ta0CUNgX4l-20" style="edgeStyle=orthogonalEdgeStyle;rounded=0;orthogonalLoop=1;jettySize=auto;html=1;exitX=1;exitY=0.5;exitDx=0;exitDy=0;" parent="1" edge="1">
          <mxGeometry relative="1" as="geometry">
            <mxPoint x="260.3103448275863" y="28.75862068965523" as="targetPoint" />
            <mxPoint x="260" y="29" as="sourcePoint" />
          </mxGeometry>
        </mxCell>
        <mxCell id="X48cYuM6y2Ta0CUNgX4l-21" value="&lt;span style=&quot;color: rgb(32 , 33 , 36) ; font-family: &amp;#34;roboto&amp;#34; , &amp;#34;arial&amp;#34; , sans-serif ; font-size: 16px ; text-align: left ; background-color: rgb(248 , 206 , 204)&quot;&gt;≥2&lt;/span&gt;" style="ellipse;whiteSpace=wrap;html=1;aspect=fixed;fillColor=#f8cecc;strokeColor=#b85450;" parent="1" vertex="1">
          <mxGeometry x="360" y="-180" width="40" height="40" as="geometry" />
        </mxCell>
        <mxCell id="X48cYuM6y2Ta0CUNgX4l-23" value="" style="endArrow=classic;html=1;rounded=0;exitX=1;exitY=0.5;exitDx=0;exitDy=0;" parent="1" source="X48cYuM6y2Ta0CUNgX4l-4" edge="1">
          <mxGeometry width="50" height="50" relative="1" as="geometry">
            <mxPoint x="170" y="-150" as="sourcePoint" />
            <mxPoint x="200" y="-140" as="targetPoint" />
          </mxGeometry>
        </mxCell>
        <mxCell id="X48cYuM6y2Ta0CUNgX4l-27" value="" style="endArrow=classic;html=1;rounded=0;exitX=1;exitY=0.5;exitDx=0;exitDy=0;" parent="1" source="X48cYuM6y2Ta0CUNgX4l-10" edge="1">
          <mxGeometry width="50" height="50" relative="1" as="geometry">
            <mxPoint x="170" y="-100" as="sourcePoint" />
            <mxPoint x="200" y="-100" as="targetPoint" />
          </mxGeometry>
        </mxCell>
        <mxCell id="X48cYuM6y2Ta0CUNgX4l-42" value="&lt;font style=&quot;font-size: 20px&quot;&gt;Y&lt;/font&gt;" style="rounded=1;whiteSpace=wrap;html=1;fillColor=#d5e8d4;strokeColor=#82b366;" parent="1" vertex="1">
          <mxGeometry x="-40" y="420" width="40" height="40" as="geometry" />
        </mxCell>
        <mxCell id="X48cYuM6y2Ta0CUNgX4l-43" value="+1" style="ellipse;whiteSpace=wrap;html=1;aspect=fixed;fillColor=#dae8fc;strokeColor=#6c8ebf;" parent="1" vertex="1">
          <mxGeometry x="120" y="240" width="40" height="40" as="geometry" />
        </mxCell>
        <mxCell id="X48cYuM6y2Ta0CUNgX4l-45" value="" style="endArrow=classic;html=1;rounded=0;entryX=0;entryY=0.5;entryDx=0;entryDy=0;exitX=1;exitY=0.5;exitDx=0;exitDy=0;" parent="1" source="X48cYuM6y2Ta0CUNgX4l-42" target="X48cYuM6y2Ta0CUNgX4l-43" edge="1">
          <mxGeometry width="50" height="50" relative="1" as="geometry">
            <mxPoint x="60" y="200" as="sourcePoint" />
            <mxPoint x="110" y="150" as="targetPoint" />
          </mxGeometry>
        </mxCell>
        <mxCell id="X48cYuM6y2Ta0CUNgX4l-46" value="+9" style="ellipse;whiteSpace=wrap;html=1;aspect=fixed;fillColor=#dae8fc;strokeColor=#6c8ebf;" parent="1" vertex="1">
          <mxGeometry x="120" y="280" width="40" height="40" as="geometry" />
        </mxCell>
        <mxCell id="X48cYuM6y2Ta0CUNgX4l-48" value="" style="endArrow=classic;html=1;rounded=0;entryX=0;entryY=0.5;entryDx=0;entryDy=0;exitX=1;exitY=0.5;exitDx=0;exitDy=0;" parent="1" source="X48cYuM6y2Ta0CUNgX4l-42" target="X48cYuM6y2Ta0CUNgX4l-46" edge="1">
          <mxGeometry width="50" height="50" relative="1" as="geometry">
            <mxPoint x="60" y="210" as="sourcePoint" />
            <mxPoint x="110" y="160" as="targetPoint" />
          </mxGeometry>
        </mxCell>
        <mxCell id="X48cYuM6y2Ta0CUNgX4l-56" value="&lt;span style=&quot;background-color: rgb(248 , 206 , 204)&quot;&gt;&lt;span style=&quot;color: rgb(32 , 33 , 36) ; font-family: &amp;#34;roboto&amp;#34; , &amp;#34;arial&amp;#34; , sans-serif ; font-size: 16px ; text-align: left&quot;&gt;≥&lt;/span&gt;&lt;span style=&quot;color: rgb(32 , 33 , 36) ; font-family: &amp;#34;roboto&amp;#34; , &amp;#34;arial&amp;#34; , sans-serif ; font-size: 16px ; text-align: left&quot;&gt;0&lt;/span&gt;&lt;/span&gt;" style="ellipse;whiteSpace=wrap;html=1;aspect=fixed;fillColor=#f8cecc;strokeColor=#b85450;" parent="1" vertex="1">
          <mxGeometry x="200" y="-160" width="40" height="40" as="geometry" />
        </mxCell>
        <mxCell id="X48cYuM6y2Ta0CUNgX4l-58" value="" style="endArrow=classic;html=1;rounded=0;exitX=1;exitY=0.5;exitDx=0;exitDy=0;entryX=0;entryY=0.5;entryDx=0;entryDy=0;" parent="1" source="X48cYuM6y2Ta0CUNgX4l-56" target="rzbT1TYOIwulQJLnCchb-53" edge="1">
          <mxGeometry width="50" height="50" relative="1" as="geometry">
            <mxPoint x="250" y="-30" as="sourcePoint" />
            <mxPoint x="280" y="-20" as="targetPoint" />
          </mxGeometry>
        </mxCell>
        <mxCell id="X48cYuM6y2Ta0CUNgX4l-62" value="&lt;span style=&quot;color: rgb(32 , 33 , 36) ; font-family: &amp;#34;roboto&amp;#34; , &amp;#34;arial&amp;#34; , sans-serif ; font-size: 16px ; text-align: left ; background-color: rgb(248 , 206 , 204)&quot;&gt;≤&lt;/span&gt;&lt;span style=&quot;color: rgb(32 , 33 , 36) ; font-family: &amp;#34;roboto&amp;#34; , &amp;#34;arial&amp;#34; , sans-serif ; font-size: 16px ; text-align: left ; background-color: rgb(248 , 206 , 204)&quot;&gt;0&lt;/span&gt;" style="ellipse;whiteSpace=wrap;html=1;aspect=fixed;fillColor=#f8cecc;strokeColor=#b85450;" parent="1" vertex="1">
          <mxGeometry x="200" y="-120" width="40" height="40" as="geometry" />
        </mxCell>
        <mxCell id="X48cYuM6y2Ta0CUNgX4l-64" value="" style="endArrow=classic;html=1;rounded=0;exitX=1;exitY=0.5;exitDx=0;exitDy=0;entryX=0;entryY=0.5;entryDx=0;entryDy=0;" parent="1" source="X48cYuM6y2Ta0CUNgX4l-125" target="rzbT1TYOIwulQJLnCchb-53" edge="1">
          <mxGeometry width="50" height="50" relative="1" as="geometry">
            <mxPoint x="250" y="50" as="sourcePoint" />
            <mxPoint x="280" y="60" as="targetPoint" />
          </mxGeometry>
        </mxCell>
        <mxCell id="X48cYuM6y2Ta0CUNgX4l-66" value="+2" style="ellipse;whiteSpace=wrap;html=1;aspect=fixed;fillColor=#dae8fc;strokeColor=#6c8ebf;" parent="1" vertex="1">
          <mxGeometry x="120" y="-80" width="40" height="40" as="geometry" />
        </mxCell>
        <mxCell id="X48cYuM6y2Ta0CUNgX4l-68" value="" style="endArrow=classic;html=1;rounded=0;exitX=1;exitY=0.5;exitDx=0;exitDy=0;" parent="1" source="X48cYuM6y2Ta0CUNgX4l-66" edge="1">
          <mxGeometry width="50" height="50" relative="1" as="geometry">
            <mxPoint x="170" y="-60" as="sourcePoint" />
            <mxPoint x="200" y="-60" as="targetPoint" />
          </mxGeometry>
        </mxCell>
        <mxCell id="X48cYuM6y2Ta0CUNgX4l-69" value="&lt;span style=&quot;color: rgb(32 , 33 , 36) ; font-family: &amp;#34;roboto&amp;#34; , &amp;#34;arial&amp;#34; , sans-serif ; font-size: 16px ; font-style: normal ; font-weight: 400 ; letter-spacing: normal ; text-align: left ; text-indent: 0px ; text-transform: none ; word-spacing: 0px ; display: inline ; float: none ; background-color: rgb(248 , 206 , 204)&quot;&gt;≥0&lt;/span&gt;" style="ellipse;whiteSpace=wrap;html=1;aspect=fixed;fillColor=#f8cecc;strokeColor=#b85450;" parent="1" vertex="1">
          <mxGeometry x="200" y="-80" width="40" height="40" as="geometry" />
        </mxCell>
        <mxCell id="X48cYuM6y2Ta0CUNgX4l-74" value="" style="endArrow=classic;html=1;rounded=0;exitX=1;exitY=0.5;exitDx=0;exitDy=0;entryX=0;entryY=0.5;entryDx=0;entryDy=0;" parent="1" edge="1" target="rzbT1TYOIwulQJLnCchb-54" source="X48cYuM6y2Ta0CUNgX4l-69">
          <mxGeometry width="50" height="50" relative="1" as="geometry">
            <mxPoint x="240" y="60" as="sourcePoint" />
            <mxPoint x="280" y="20" as="targetPoint" />
          </mxGeometry>
        </mxCell>
        <mxCell id="X48cYuM6y2Ta0CUNgX4l-76" value="" style="endArrow=classic;html=1;rounded=0;entryX=0;entryY=0.5;entryDx=0;entryDy=0;exitX=1;exitY=0.5;exitDx=0;exitDy=0;" parent="1" source="X48cYuM6y2Ta0CUNgX4l-2" target="X48cYuM6y2Ta0CUNgX4l-66" edge="1">
          <mxGeometry width="50" height="50" relative="1" as="geometry">
            <mxPoint x="60" y="90" as="sourcePoint" />
            <mxPoint x="100" y="50" as="targetPoint" />
          </mxGeometry>
        </mxCell>
        <mxCell id="X48cYuM6y2Ta0CUNgX4l-81" value="&lt;span style=&quot;color: rgb(32 , 33 , 36) ; font-family: &amp;#34;roboto&amp;#34; , &amp;#34;arial&amp;#34; , sans-serif ; font-size: 16px ; text-align: left ; background-color: rgb(248 , 206 , 204)&quot;&gt;≥2&lt;/span&gt;" style="ellipse;whiteSpace=wrap;html=1;aspect=fixed;fillColor=#f8cecc;strokeColor=#b85450;" parent="1" vertex="1">
          <mxGeometry x="360" y="-100" width="40" height="40" as="geometry" />
        </mxCell>
        <mxCell id="X48cYuM6y2Ta0CUNgX4l-83" value="" style="endArrow=classic;html=1;rounded=0;exitX=1;exitY=0.5;exitDx=0;exitDy=0;entryX=0;entryY=0.5;entryDx=0;entryDy=0;" parent="1" edge="1" target="rzbT1TYOIwulQJLnCchb-54" source="X48cYuM6y2Ta0CUNgX4l-62">
          <mxGeometry width="50" height="50" relative="1" as="geometry">
            <mxPoint x="239.99999999999795" y="-21" as="sourcePoint" />
            <mxPoint x="279.99999999999795" y="19" as="targetPoint" />
          </mxGeometry>
        </mxCell>
        <mxCell id="X48cYuM6y2Ta0CUNgX4l-93" value="" style="endArrow=classic;html=1;rounded=0;exitX=1;exitY=0.5;exitDx=0;exitDy=0;" parent="1" edge="1">
          <mxGeometry width="50" height="50" relative="1" as="geometry">
            <mxPoint x="159.99999999999798" y="260" as="sourcePoint" />
            <mxPoint x="200.00000000000003" y="260" as="targetPoint" />
          </mxGeometry>
        </mxCell>
        <mxCell id="X48cYuM6y2Ta0CUNgX4l-94" value="" style="endArrow=classic;html=1;rounded=0;exitX=1;exitY=0.5;exitDx=0;exitDy=0;" parent="1" edge="1">
          <mxGeometry width="50" height="50" relative="1" as="geometry">
            <mxPoint x="159.99999999999798" y="300" as="sourcePoint" />
            <mxPoint x="200.00000000000003" y="300" as="targetPoint" />
          </mxGeometry>
        </mxCell>
        <mxCell id="X48cYuM6y2Ta0CUNgX4l-95" value="&lt;span style=&quot;color: rgb(32 , 33 , 36) ; font-family: &amp;#34;roboto&amp;#34; , &amp;#34;arial&amp;#34; , sans-serif ; font-size: 16px ; text-align: left ; background-color: rgb(248 , 206 , 204)&quot;&gt;≤&lt;/span&gt;&lt;span style=&quot;color: rgb(32 , 33 , 36) ; font-family: &amp;#34;roboto&amp;#34; , &amp;#34;arial&amp;#34; , sans-serif ; font-size: 16px ; text-align: left ; background-color: rgb(248 , 206 , 204)&quot;&gt;0&lt;/span&gt;" style="ellipse;whiteSpace=wrap;html=1;aspect=fixed;fillColor=#f8cecc;strokeColor=#b85450;" parent="1" vertex="1">
          <mxGeometry x="200.00000000000003" y="240" width="40" height="40" as="geometry" />
        </mxCell>
        <mxCell id="X48cYuM6y2Ta0CUNgX4l-96" value="&lt;span style=&quot;color: rgb(32 , 33 , 36) ; font-family: &amp;#34;roboto&amp;#34; , &amp;#34;arial&amp;#34; , sans-serif ; font-size: 16px ; text-align: left&quot;&gt;≥&lt;/span&gt;&lt;span style=&quot;color: rgb(32 , 33 , 36) ; font-family: &amp;#34;roboto&amp;#34; , &amp;#34;arial&amp;#34; , sans-serif ; font-size: 16px ; text-align: left&quot;&gt;0&lt;/span&gt;" style="ellipse;whiteSpace=wrap;html=1;aspect=fixed;fillColor=#f8cecc;strokeColor=#b85450;" parent="1" vertex="1">
          <mxGeometry x="200.00000000000003" y="280" width="40" height="40" as="geometry" />
        </mxCell>
        <mxCell id="X48cYuM6y2Ta0CUNgX4l-98" value="&lt;span style=&quot;color: rgb(32 , 33 , 36) ; font-family: &amp;#34;roboto&amp;#34; , &amp;#34;arial&amp;#34; , sans-serif ; font-size: 16px ; text-align: left ; background-color: rgb(248 , 206 , 204)&quot;&gt;≥2&lt;/span&gt;" style="ellipse;whiteSpace=wrap;html=1;aspect=fixed;fillColor=#f8cecc;strokeColor=#b85450;" parent="1" vertex="1">
          <mxGeometry x="360" y="260" width="40" height="40" as="geometry" />
        </mxCell>
        <mxCell id="X48cYuM6y2Ta0CUNgX4l-99" value="" style="endArrow=classic;html=1;rounded=0;exitX=1;exitY=0.5;exitDx=0;exitDy=0;entryX=0;entryY=0.5;entryDx=0;entryDy=0;" parent="1" target="rzbT1TYOIwulQJLnCchb-90" edge="1" source="X48cYuM6y2Ta0CUNgX4l-95">
          <mxGeometry width="50" height="50" relative="1" as="geometry">
            <mxPoint x="239.99999999999795" y="140" as="sourcePoint" />
            <mxPoint x="280" y="220" as="targetPoint" />
          </mxGeometry>
        </mxCell>
        <mxCell id="X48cYuM6y2Ta0CUNgX4l-100" value="" style="endArrow=classic;html=1;rounded=0;exitX=1;exitY=0.5;exitDx=0;exitDy=0;entryX=0;entryY=0.5;entryDx=0;entryDy=0;" parent="1" target="rzbT1TYOIwulQJLnCchb-90" edge="1" source="X48cYuM6y2Ta0CUNgX4l-96">
          <mxGeometry width="50" height="50" relative="1" as="geometry">
            <mxPoint x="239.99999999999795" y="220" as="sourcePoint" />
            <mxPoint x="280" y="300" as="targetPoint" />
          </mxGeometry>
        </mxCell>
        <mxCell id="X48cYuM6y2Ta0CUNgX4l-101" value="+3" style="ellipse;whiteSpace=wrap;html=1;aspect=fixed;fillColor=#dae8fc;strokeColor=#6c8ebf;" parent="1" vertex="1">
          <mxGeometry x="120" y="321" width="40" height="40" as="geometry" />
        </mxCell>
        <mxCell id="X48cYuM6y2Ta0CUNgX4l-103" value="+7" style="ellipse;whiteSpace=wrap;html=1;aspect=fixed;fillColor=#dae8fc;strokeColor=#6c8ebf;" parent="1" vertex="1">
          <mxGeometry x="120" y="361" width="40" height="40" as="geometry" />
        </mxCell>
        <mxCell id="X48cYuM6y2Ta0CUNgX4l-105" value="" style="endArrow=classic;html=1;rounded=0;exitX=1;exitY=0.5;exitDx=0;exitDy=0;" parent="1" edge="1">
          <mxGeometry width="50" height="50" relative="1" as="geometry">
            <mxPoint x="159.99999999999795" y="341" as="sourcePoint" />
            <mxPoint x="200" y="341" as="targetPoint" />
          </mxGeometry>
        </mxCell>
        <mxCell id="X48cYuM6y2Ta0CUNgX4l-106" value="" style="endArrow=classic;html=1;rounded=0;exitX=1;exitY=0.5;exitDx=0;exitDy=0;" parent="1" edge="1">
          <mxGeometry width="50" height="50" relative="1" as="geometry">
            <mxPoint x="159.99999999999795" y="381" as="sourcePoint" />
            <mxPoint x="200" y="381" as="targetPoint" />
          </mxGeometry>
        </mxCell>
        <mxCell id="X48cYuM6y2Ta0CUNgX4l-107" value="&lt;span style=&quot;color: rgb(32 , 33 , 36) ; font-family: &amp;#34;roboto&amp;#34; , &amp;#34;arial&amp;#34; , sans-serif ; font-size: 16px ; text-align: left ; background-color: rgb(248 , 206 , 204)&quot;&gt;≤&lt;/span&gt;&lt;span style=&quot;color: rgb(32 , 33 , 36) ; font-family: &amp;#34;roboto&amp;#34; , &amp;#34;arial&amp;#34; , sans-serif ; font-size: 16px ; text-align: left ; background-color: rgb(248 , 206 , 204)&quot;&gt;0&lt;/span&gt;" style="ellipse;whiteSpace=wrap;html=1;aspect=fixed;fillColor=#f8cecc;strokeColor=#b85450;" parent="1" vertex="1">
          <mxGeometry x="200.00000000000003" y="321" width="40" height="40" as="geometry" />
        </mxCell>
        <mxCell id="X48cYuM6y2Ta0CUNgX4l-108" value="&lt;span style=&quot;color: rgb(32 , 33 , 36) ; font-family: &amp;#34;roboto&amp;#34; , &amp;#34;arial&amp;#34; , sans-serif ; font-size: 16px ; text-align: left&quot;&gt;≥&lt;/span&gt;&lt;span style=&quot;color: rgb(32 , 33 , 36) ; font-family: &amp;#34;roboto&amp;#34; , &amp;#34;arial&amp;#34; , sans-serif ; font-size: 16px ; text-align: left&quot;&gt;0&lt;/span&gt;" style="ellipse;whiteSpace=wrap;html=1;aspect=fixed;fillColor=#f8cecc;strokeColor=#b85450;" parent="1" vertex="1">
          <mxGeometry x="200.00000000000003" y="361" width="40" height="40" as="geometry" />
        </mxCell>
        <mxCell id="X48cYuM6y2Ta0CUNgX4l-109" value="&lt;span style=&quot;color: rgb(32 , 33 , 36) ; font-family: &amp;#34;roboto&amp;#34; , &amp;#34;arial&amp;#34; , sans-serif ; font-size: 16px ; text-align: left ; background-color: rgb(248 , 206 , 204)&quot;&gt;≥2&lt;/span&gt;" style="ellipse;whiteSpace=wrap;html=1;aspect=fixed;fillColor=#f8cecc;strokeColor=#b85450;" parent="1" vertex="1">
          <mxGeometry x="360" y="340" width="40" height="40" as="geometry" />
        </mxCell>
        <mxCell id="X48cYuM6y2Ta0CUNgX4l-110" value="" style="endArrow=classic;html=1;rounded=0;exitX=1;exitY=0.5;exitDx=0;exitDy=0;entryX=0;entryY=0.5;entryDx=0;entryDy=0;" parent="1" target="rzbT1TYOIwulQJLnCchb-91" edge="1" source="X48cYuM6y2Ta0CUNgX4l-107">
          <mxGeometry width="50" height="50" relative="1" as="geometry">
            <mxPoint x="239.99999999999795" y="301" as="sourcePoint" />
            <mxPoint x="280" y="381" as="targetPoint" />
          </mxGeometry>
        </mxCell>
        <mxCell id="X48cYuM6y2Ta0CUNgX4l-111" value="" style="endArrow=classic;html=1;rounded=0;exitX=1;exitY=0.5;exitDx=0;exitDy=0;entryX=0;entryY=0.5;entryDx=0;entryDy=0;" parent="1" target="rzbT1TYOIwulQJLnCchb-91" edge="1">
          <mxGeometry width="50" height="50" relative="1" as="geometry">
            <mxPoint x="239.99999999999795" y="381" as="sourcePoint" />
            <mxPoint x="280" y="461" as="targetPoint" />
          </mxGeometry>
        </mxCell>
        <mxCell id="X48cYuM6y2Ta0CUNgX4l-112" value="" style="endArrow=classic;html=1;rounded=0;entryX=0;entryY=0.5;entryDx=0;entryDy=0;exitX=1;exitY=0.5;exitDx=0;exitDy=0;" parent="1" edge="1" source="X48cYuM6y2Ta0CUNgX4l-42">
          <mxGeometry width="50" height="50" relative="1" as="geometry">
            <mxPoint x="80" y="260" as="sourcePoint" />
            <mxPoint x="120.00000000000193" y="380" as="targetPoint" />
          </mxGeometry>
        </mxCell>
        <mxCell id="X48cYuM6y2Ta0CUNgX4l-113" value="" style="endArrow=classic;html=1;rounded=0;entryX=0;entryY=0.5;entryDx=0;entryDy=0;exitX=1;exitY=0.5;exitDx=0;exitDy=0;" parent="1" source="X48cYuM6y2Ta0CUNgX4l-42" edge="1" target="X48cYuM6y2Ta0CUNgX4l-101">
          <mxGeometry width="50" height="50" relative="1" as="geometry">
            <mxPoint x="80" y="420" as="sourcePoint" />
            <mxPoint x="120.00000000000193" y="300" as="targetPoint" />
          </mxGeometry>
        </mxCell>
        <mxCell id="X48cYuM6y2Ta0CUNgX4l-114" value="&lt;span style=&quot;color: rgb(32 , 33 , 36) ; font-family: &amp;#34;roboto&amp;#34; , &amp;#34;arial&amp;#34; , sans-serif ; font-size: 16px ; text-align: left ; background-color: rgb(212 , 225 , 245)&quot;&gt;0&lt;/span&gt;" style="ellipse;whiteSpace=wrap;html=1;aspect=fixed;fillColor=#dae8fc;strokeColor=#6c8ebf;" parent="1" vertex="1">
          <mxGeometry x="480" y="-80" width="40" height="40" as="geometry" />
        </mxCell>
        <mxCell id="X48cYuM6y2Ta0CUNgX4l-115" value="" style="endArrow=classic;html=1;rounded=0;fontSize=16;entryX=0;entryY=0.5;entryDx=0;entryDy=0;exitX=1;exitY=0.5;exitDx=0;exitDy=0;" parent="1" source="X48cYuM6y2Ta0CUNgX4l-21" target="X48cYuM6y2Ta0CUNgX4l-114" edge="1">
          <mxGeometry width="50" height="50" relative="1" as="geometry">
            <mxPoint x="320" y="-60" as="sourcePoint" />
            <mxPoint x="370" y="-110" as="targetPoint" />
          </mxGeometry>
        </mxCell>
        <mxCell id="X48cYuM6y2Ta0CUNgX4l-117" value="" style="endArrow=classic;html=1;rounded=0;fontSize=16;exitX=1;exitY=0.5;exitDx=0;exitDy=0;" parent="1" edge="1" source="X48cYuM6y2Ta0CUNgX4l-98">
          <mxGeometry width="50" height="50" relative="1" as="geometry">
            <mxPoint x="440" y="179.66" as="sourcePoint" />
            <mxPoint x="480" y="-60" as="targetPoint" />
          </mxGeometry>
        </mxCell>
        <mxCell id="X48cYuM6y2Ta0CUNgX4l-118" value="&lt;span style=&quot;color: rgb(32 , 33 , 36) ; font-family: &amp;#34;roboto&amp;#34; , &amp;#34;arial&amp;#34; , sans-serif ; font-size: 16px ; text-align: left ; background-color: rgb(212 , 225 , 245)&quot;&gt;0&lt;/span&gt;" style="ellipse;whiteSpace=wrap;html=1;aspect=fixed;fillColor=#dae8fc;strokeColor=#6c8ebf;" parent="1" vertex="1">
          <mxGeometry x="480" width="40" height="40" as="geometry" />
        </mxCell>
        <mxCell id="X48cYuM6y2Ta0CUNgX4l-120" value="" style="endArrow=classic;html=1;rounded=0;fontSize=16;entryX=0;entryY=0.5;entryDx=0;entryDy=0;exitX=1;exitY=0.5;exitDx=0;exitDy=0;" parent="1" target="X48cYuM6y2Ta0CUNgX4l-118" edge="1" source="X48cYuM6y2Ta0CUNgX4l-81">
          <mxGeometry width="50" height="50" relative="1" as="geometry">
            <mxPoint x="320" y="20" as="sourcePoint" />
            <mxPoint x="359.999999999996" y="100" as="targetPoint" />
          </mxGeometry>
        </mxCell>
        <mxCell id="X48cYuM6y2Ta0CUNgX4l-121" value="" style="endArrow=classic;html=1;rounded=0;fontSize=16;entryX=0;entryY=0.5;entryDx=0;entryDy=0;exitX=1;exitY=0.5;exitDx=0;exitDy=0;" parent="1" target="X48cYuM6y2Ta0CUNgX4l-118" edge="1" source="X48cYuM6y2Ta0CUNgX4l-109">
          <mxGeometry width="50" height="50" relative="1" as="geometry">
            <mxPoint x="320" y="339.8299999999999" as="sourcePoint" />
            <mxPoint x="360" y="180.17" as="targetPoint" />
          </mxGeometry>
        </mxCell>
        <mxCell id="X48cYuM6y2Ta0CUNgX4l-122" value="-5" style="ellipse;whiteSpace=wrap;html=1;aspect=fixed;fillColor=#dae8fc;strokeColor=#6c8ebf;" parent="1" vertex="1">
          <mxGeometry x="120" y="-200" width="40" height="40" as="geometry" />
        </mxCell>
        <mxCell id="X48cYuM6y2Ta0CUNgX4l-124" value="" style="endArrow=classic;html=1;rounded=0;exitX=1;exitY=0.5;exitDx=0;exitDy=0;" parent="1" source="X48cYuM6y2Ta0CUNgX4l-122" edge="1">
          <mxGeometry width="50" height="50" relative="1" as="geometry">
            <mxPoint x="170" y="-190" as="sourcePoint" />
            <mxPoint x="200" y="-180" as="targetPoint" />
          </mxGeometry>
        </mxCell>
        <mxCell id="X48cYuM6y2Ta0CUNgX4l-125" value="&lt;span style=&quot;color: rgb(32 , 33 , 36) ; font-family: &amp;#34;roboto&amp;#34; , &amp;#34;arial&amp;#34; , sans-serif ; font-size: 16px ; text-align: left ; background-color: rgb(248 , 206 , 204)&quot;&gt;≤&lt;/span&gt;&lt;span style=&quot;color: rgb(32 , 33 , 36) ; font-family: &amp;#34;roboto&amp;#34; , &amp;#34;arial&amp;#34; , sans-serif ; font-size: 16px ; text-align: left ; background-color: rgb(248 , 206 , 204)&quot;&gt;0&lt;/span&gt;" style="ellipse;whiteSpace=wrap;html=1;aspect=fixed;fillColor=#f8cecc;strokeColor=#b85450;" parent="1" vertex="1">
          <mxGeometry x="200" y="-200" width="40" height="40" as="geometry" />
        </mxCell>
        <mxCell id="X48cYuM6y2Ta0CUNgX4l-126" value="activation layer 1" style="text;html=1;strokeColor=none;fillColor=none;align=center;verticalAlign=middle;whiteSpace=wrap;rounded=0;" parent="1" vertex="1">
          <mxGeometry x="190" y="-240" width="60" height="30" as="geometry" />
        </mxCell>
        <mxCell id="X48cYuM6y2Ta0CUNgX4l-127" value="" style="endArrow=classic;html=1;rounded=0;entryX=0;entryY=0.5;entryDx=0;entryDy=0;exitX=1;exitY=0.5;exitDx=0;exitDy=0;" parent="1" edge="1" source="X48cYuM6y2Ta0CUNgX4l-2">
          <mxGeometry width="50" height="50" relative="1" as="geometry">
            <mxPoint x="80" y="-60" as="sourcePoint" />
            <mxPoint x="120" y="-180" as="targetPoint" />
          </mxGeometry>
        </mxCell>
        <mxCell id="X48cYuM6y2Ta0CUNgX4l-128" value="activation&lt;br&gt;layer 2" style="text;html=1;strokeColor=none;fillColor=none;align=center;verticalAlign=middle;whiteSpace=wrap;rounded=0;" parent="1" vertex="1">
          <mxGeometry x="350" y="-240" width="60" height="30" as="geometry" />
        </mxCell>
        <mxCell id="X48cYuM6y2Ta0CUNgX4l-129" value="&lt;span style=&quot;font-size: 20px&quot;&gt;Z&lt;/span&gt;" style="rounded=1;whiteSpace=wrap;html=1;fillColor=#d5e8d4;strokeColor=#82b366;" parent="1" vertex="1">
          <mxGeometry x="800" y="120" width="40" height="40" as="geometry" />
        </mxCell>
        <mxCell id="X48cYuM6y2Ta0CUNgX4l-130" value="" style="endArrow=classic;html=1;rounded=0;fontSize=16;entryX=0;entryY=0.5;entryDx=0;entryDy=0;exitX=1;exitY=0.5;exitDx=0;exitDy=0;" parent="1" target="X48cYuM6y2Ta0CUNgX4l-131" edge="1" source="rzbT1TYOIwulQJLnCchb-110">
          <mxGeometry width="50" height="50" relative="1" as="geometry">
            <mxPoint x="650" y="-100" as="sourcePoint" />
            <mxPoint x="620" y="-30" as="targetPoint" />
          </mxGeometry>
        </mxCell>
        <mxCell id="X48cYuM6y2Ta0CUNgX4l-131" value="&lt;span style=&quot;color: rgb(32 , 33 , 36) ; font-family: &amp;#34;roboto&amp;#34; , &amp;#34;arial&amp;#34; , sans-serif ; font-size: 16px ; text-align: left ; background-color: rgb(212 , 225 , 245)&quot;&gt;0&lt;/span&gt;" style="ellipse;whiteSpace=wrap;html=1;aspect=fixed;fillColor=#dae8fc;strokeColor=#6c8ebf;" parent="1" vertex="1">
          <mxGeometry x="640" y="-40" width="40" height="40" as="geometry" />
        </mxCell>
        <mxCell id="X48cYuM6y2Ta0CUNgX4l-132" value="" style="endArrow=classic;html=1;rounded=0;fontSize=16;entryX=0;entryY=0.5;entryDx=0;entryDy=0;exitX=1;exitY=0.5;exitDx=0;exitDy=0;" parent="1" target="X48cYuM6y2Ta0CUNgX4l-131" edge="1" source="rzbT1TYOIwulQJLnCchb-111">
          <mxGeometry width="50" height="50" relative="1" as="geometry">
            <mxPoint x="600" y="109.65999999999997" as="sourcePoint" />
            <mxPoint x="640" y="20" as="targetPoint" />
          </mxGeometry>
        </mxCell>
        <mxCell id="X48cYuM6y2Ta0CUNgX4l-133" value="" style="endArrow=classic;html=1;rounded=0;fontSize=16;entryX=0;entryY=0.5;entryDx=0;entryDy=0;" parent="1" target="X48cYuM6y2Ta0CUNgX4l-129" edge="1">
          <mxGeometry width="50" height="50" relative="1" as="geometry">
            <mxPoint x="760" y="-20" as="sourcePoint" />
            <mxPoint x="810" y="-70" as="targetPoint" />
          </mxGeometry>
        </mxCell>
        <mxCell id="rzbT1TYOIwulQJLnCchb-1" value="hidden layer 1" style="text;html=1;strokeColor=none;fillColor=none;align=center;verticalAlign=middle;whiteSpace=wrap;rounded=0;" vertex="1" parent="1">
          <mxGeometry x="110" y="-240" width="60" height="30" as="geometry" />
        </mxCell>
        <mxCell id="rzbT1TYOIwulQJLnCchb-2" value="-3" style="ellipse;whiteSpace=wrap;html=1;aspect=fixed;fillColor=#dae8fc;strokeColor=#6c8ebf;" vertex="1" parent="1">
          <mxGeometry x="120" width="40" height="40" as="geometry" />
        </mxCell>
        <mxCell id="rzbT1TYOIwulQJLnCchb-3" value="-1" style="ellipse;whiteSpace=wrap;html=1;aspect=fixed;fillColor=#dae8fc;strokeColor=#6c8ebf;" vertex="1" parent="1">
          <mxGeometry x="120" y="40" width="40" height="40" as="geometry" />
        </mxCell>
        <mxCell id="rzbT1TYOIwulQJLnCchb-4" value="" style="endArrow=classic;html=1;rounded=0;exitX=1;exitY=0.5;exitDx=0;exitDy=0;" edge="1" parent="1" source="rzbT1TYOIwulQJLnCchb-2">
          <mxGeometry width="50" height="50" relative="1" as="geometry">
            <mxPoint x="170" y="10" as="sourcePoint" />
            <mxPoint x="200" y="20" as="targetPoint" />
          </mxGeometry>
        </mxCell>
        <mxCell id="rzbT1TYOIwulQJLnCchb-5" value="" style="endArrow=classic;html=1;rounded=0;exitX=1;exitY=0.5;exitDx=0;exitDy=0;" edge="1" parent="1" source="rzbT1TYOIwulQJLnCchb-3">
          <mxGeometry width="50" height="50" relative="1" as="geometry">
            <mxPoint x="170" y="60" as="sourcePoint" />
            <mxPoint x="200" y="60" as="targetPoint" />
          </mxGeometry>
        </mxCell>
        <mxCell id="rzbT1TYOIwulQJLnCchb-6" value="&lt;span style=&quot;color: rgb(32 , 33 , 36) ; font-family: &amp;#34;roboto&amp;#34; , &amp;#34;arial&amp;#34; , sans-serif ; font-size: 16px ; text-align: left&quot;&gt;≥&lt;/span&gt;&lt;span style=&quot;color: rgb(32 , 33 , 36) ; font-family: &amp;#34;roboto&amp;#34; , &amp;#34;arial&amp;#34; , sans-serif ; font-size: 16px ; text-align: left&quot;&gt;0&lt;/span&gt;" style="ellipse;whiteSpace=wrap;html=1;aspect=fixed;fillColor=#f8cecc;strokeColor=#b85450;" vertex="1" parent="1">
          <mxGeometry x="200" width="40" height="40" as="geometry" />
        </mxCell>
        <mxCell id="rzbT1TYOIwulQJLnCchb-7" value="&lt;span style=&quot;color: rgb(32 , 33 , 36) ; font-family: &amp;#34;roboto&amp;#34; , &amp;#34;arial&amp;#34; , sans-serif ; font-size: 16px ; text-align: left ; background-color: rgb(248 , 206 , 204)&quot;&gt;≤&lt;/span&gt;&lt;span style=&quot;color: rgb(32 , 33 , 36) ; font-family: &amp;#34;roboto&amp;#34; , &amp;#34;arial&amp;#34; , sans-serif ; font-size: 16px ; text-align: left ; background-color: rgb(248 , 206 , 204)&quot;&gt;0&lt;/span&gt;" style="ellipse;whiteSpace=wrap;html=1;aspect=fixed;fillColor=#f8cecc;strokeColor=#b85450;" vertex="1" parent="1">
          <mxGeometry x="200" y="40" width="40" height="40" as="geometry" />
        </mxCell>
        <mxCell id="rzbT1TYOIwulQJLnCchb-8" value="+1" style="ellipse;whiteSpace=wrap;html=1;aspect=fixed;fillColor=#dae8fc;strokeColor=#6c8ebf;" vertex="1" parent="1">
          <mxGeometry x="120" y="80" width="40" height="40" as="geometry" />
        </mxCell>
        <mxCell id="rzbT1TYOIwulQJLnCchb-9" value="" style="endArrow=classic;html=1;rounded=0;exitX=1;exitY=0.5;exitDx=0;exitDy=0;" edge="1" parent="1" source="rzbT1TYOIwulQJLnCchb-8">
          <mxGeometry width="50" height="50" relative="1" as="geometry">
            <mxPoint x="170" y="100" as="sourcePoint" />
            <mxPoint x="200" y="100" as="targetPoint" />
          </mxGeometry>
        </mxCell>
        <mxCell id="rzbT1TYOIwulQJLnCchb-10" value="&lt;span style=&quot;color: rgb(32 , 33 , 36) ; font-family: &amp;#34;roboto&amp;#34; , &amp;#34;arial&amp;#34; , sans-serif ; font-size: 16px ; text-align: left&quot;&gt;≥&lt;/span&gt;&lt;span style=&quot;color: rgb(32 , 33 , 36) ; font-family: &amp;#34;roboto&amp;#34; , &amp;#34;arial&amp;#34; , sans-serif ; font-size: 16px ; text-align: left&quot;&gt;0&lt;/span&gt;" style="ellipse;whiteSpace=wrap;html=1;aspect=fixed;fillColor=#f8cecc;strokeColor=#b85450;" vertex="1" parent="1">
          <mxGeometry x="200" y="80" width="40" height="40" as="geometry" />
        </mxCell>
        <mxCell id="rzbT1TYOIwulQJLnCchb-11" value="-5" style="ellipse;whiteSpace=wrap;html=1;aspect=fixed;fillColor=#dae8fc;strokeColor=#6c8ebf;" vertex="1" parent="1">
          <mxGeometry x="120" y="-40" width="40" height="40" as="geometry" />
        </mxCell>
        <mxCell id="rzbT1TYOIwulQJLnCchb-12" value="" style="endArrow=classic;html=1;rounded=0;exitX=1;exitY=0.5;exitDx=0;exitDy=0;" edge="1" parent="1" source="rzbT1TYOIwulQJLnCchb-11">
          <mxGeometry width="50" height="50" relative="1" as="geometry">
            <mxPoint x="170" y="-30" as="sourcePoint" />
            <mxPoint x="200" y="-20" as="targetPoint" />
          </mxGeometry>
        </mxCell>
        <mxCell id="rzbT1TYOIwulQJLnCchb-13" value="&lt;span style=&quot;color: rgb(32 , 33 , 36) ; font-family: &amp;#34;roboto&amp;#34; , &amp;#34;arial&amp;#34; , sans-serif ; font-size: 16px ; text-align: left ; background-color: rgb(248 , 206 , 204)&quot;&gt;≤&lt;/span&gt;&lt;span style=&quot;color: rgb(32 , 33 , 36) ; font-family: &amp;#34;roboto&amp;#34; , &amp;#34;arial&amp;#34; , sans-serif ; font-size: 16px ; text-align: left ; background-color: rgb(248 , 206 , 204)&quot;&gt;0&lt;/span&gt;" style="ellipse;whiteSpace=wrap;html=1;aspect=fixed;fillColor=#f8cecc;strokeColor=#b85450;" vertex="1" parent="1">
          <mxGeometry x="200" y="-40" width="40" height="40" as="geometry" />
        </mxCell>
        <mxCell id="rzbT1TYOIwulQJLnCchb-14" value="-5" style="ellipse;whiteSpace=wrap;html=1;aspect=fixed;fillColor=#dae8fc;strokeColor=#6c8ebf;" vertex="1" parent="1">
          <mxGeometry x="120" y="120" width="40" height="40" as="geometry" />
        </mxCell>
        <mxCell id="rzbT1TYOIwulQJLnCchb-15" value="" style="endArrow=classic;html=1;rounded=0;exitX=1;exitY=0.5;exitDx=0;exitDy=0;" edge="1" parent="1" source="rzbT1TYOIwulQJLnCchb-14">
          <mxGeometry width="50" height="50" relative="1" as="geometry">
            <mxPoint x="170" y="140" as="sourcePoint" />
            <mxPoint x="200" y="140" as="targetPoint" />
          </mxGeometry>
        </mxCell>
        <mxCell id="rzbT1TYOIwulQJLnCchb-16" value="&lt;span style=&quot;color: rgb(32 , 33 , 36) ; font-family: &amp;#34;roboto&amp;#34; , &amp;#34;arial&amp;#34; , sans-serif ; font-size: 16px ; text-align: left ; background-color: rgb(248 , 206 , 204)&quot;&gt;≤&lt;/span&gt;&lt;span style=&quot;color: rgb(32 , 33 , 36) ; font-family: &amp;#34;roboto&amp;#34; , &amp;#34;arial&amp;#34; , sans-serif ; font-size: 16px ; text-align: left ; background-color: rgb(248 , 206 , 204)&quot;&gt;0&lt;/span&gt;" style="ellipse;whiteSpace=wrap;html=1;aspect=fixed;fillColor=#f8cecc;strokeColor=#b85450;" vertex="1" parent="1">
          <mxGeometry x="200" y="120" width="40" height="40" as="geometry" />
        </mxCell>
        <mxCell id="rzbT1TYOIwulQJLnCchb-17" value="+5" style="ellipse;whiteSpace=wrap;html=1;aspect=fixed;fillColor=#dae8fc;strokeColor=#6c8ebf;" vertex="1" parent="1">
          <mxGeometry x="120" y="160" width="40" height="40" as="geometry" />
        </mxCell>
        <mxCell id="rzbT1TYOIwulQJLnCchb-18" value="" style="endArrow=classic;html=1;rounded=0;exitX=1;exitY=0.5;exitDx=0;exitDy=0;" edge="1" parent="1" source="rzbT1TYOIwulQJLnCchb-17">
          <mxGeometry width="50" height="50" relative="1" as="geometry">
            <mxPoint x="170" y="180" as="sourcePoint" />
            <mxPoint x="200" y="180" as="targetPoint" />
          </mxGeometry>
        </mxCell>
        <mxCell id="rzbT1TYOIwulQJLnCchb-19" value="&lt;span style=&quot;color: rgb(32 , 33 , 36) ; font-family: &amp;#34;roboto&amp;#34; , &amp;#34;arial&amp;#34; , sans-serif ; font-size: 16px ; text-align: left&quot;&gt;≥&lt;/span&gt;&lt;span style=&quot;color: rgb(32 , 33 , 36) ; font-family: &amp;#34;roboto&amp;#34; , &amp;#34;arial&amp;#34; , sans-serif ; font-size: 16px ; text-align: left&quot;&gt;0&lt;/span&gt;" style="ellipse;whiteSpace=wrap;html=1;aspect=fixed;fillColor=#f8cecc;strokeColor=#b85450;" vertex="1" parent="1">
          <mxGeometry x="200" y="160" width="40" height="40" as="geometry" />
        </mxCell>
        <mxCell id="rzbT1TYOIwulQJLnCchb-20" value="" style="endArrow=classic;html=1;rounded=0;exitX=1;exitY=0.5;exitDx=0;exitDy=0;entryX=0;entryY=0.5;entryDx=0;entryDy=0;" edge="1" parent="1" source="X48cYuM6y2Ta0CUNgX4l-2" target="rzbT1TYOIwulQJLnCchb-11">
          <mxGeometry width="50" height="50" relative="1" as="geometry">
            <mxPoint x="70" y="40" as="sourcePoint" />
            <mxPoint x="100" y="10" as="targetPoint" />
          </mxGeometry>
        </mxCell>
        <mxCell id="rzbT1TYOIwulQJLnCchb-21" value="" style="endArrow=classic;html=1;rounded=0;entryX=0;entryY=0.5;entryDx=0;entryDy=0;exitX=1;exitY=0.5;exitDx=0;exitDy=0;" edge="1" parent="1" source="X48cYuM6y2Ta0CUNgX4l-2" target="rzbT1TYOIwulQJLnCchb-2">
          <mxGeometry width="50" height="50" relative="1" as="geometry">
            <mxPoint x="80" y="-20" as="sourcePoint" />
            <mxPoint x="110.00000000000193" y="40" as="targetPoint" />
          </mxGeometry>
        </mxCell>
        <mxCell id="rzbT1TYOIwulQJLnCchb-22" value="" style="endArrow=classic;html=1;rounded=0;exitX=1;exitY=0.5;exitDx=0;exitDy=0;entryX=0;entryY=0.5;entryDx=0;entryDy=0;" edge="1" parent="1" source="X48cYuM6y2Ta0CUNgX4l-2" target="rzbT1TYOIwulQJLnCchb-3">
          <mxGeometry width="50" height="50" relative="1" as="geometry">
            <mxPoint x="60" y="30" as="sourcePoint" />
            <mxPoint x="100.00000000000193" y="40" as="targetPoint" />
          </mxGeometry>
        </mxCell>
        <mxCell id="rzbT1TYOIwulQJLnCchb-23" style="edgeStyle=orthogonalEdgeStyle;rounded=0;orthogonalLoop=1;jettySize=auto;html=1;exitX=1;exitY=0.5;exitDx=0;exitDy=0;" edge="1" parent="1">
          <mxGeometry relative="1" as="geometry">
            <mxPoint x="260.31034482758616" y="469.75862068965523" as="targetPoint" />
            <mxPoint x="259.9999999999999" y="470" as="sourcePoint" />
          </mxGeometry>
        </mxCell>
        <mxCell id="rzbT1TYOIwulQJLnCchb-24" value="-4" style="ellipse;whiteSpace=wrap;html=1;aspect=fixed;fillColor=#dae8fc;strokeColor=#6c8ebf;" vertex="1" parent="1">
          <mxGeometry x="119.99999999999999" y="441" width="40" height="40" as="geometry" />
        </mxCell>
        <mxCell id="rzbT1TYOIwulQJLnCchb-25" value="-6" style="ellipse;whiteSpace=wrap;html=1;aspect=fixed;fillColor=#dae8fc;strokeColor=#6c8ebf;" vertex="1" parent="1">
          <mxGeometry x="119.99999999999999" y="481" width="40" height="40" as="geometry" />
        </mxCell>
        <mxCell id="rzbT1TYOIwulQJLnCchb-26" value="" style="endArrow=classic;html=1;rounded=0;exitX=1;exitY=0.5;exitDx=0;exitDy=0;" edge="1" parent="1" source="rzbT1TYOIwulQJLnCchb-24">
          <mxGeometry width="50" height="50" relative="1" as="geometry">
            <mxPoint x="170" y="451" as="sourcePoint" />
            <mxPoint x="200" y="461" as="targetPoint" />
          </mxGeometry>
        </mxCell>
        <mxCell id="rzbT1TYOIwulQJLnCchb-27" value="" style="endArrow=classic;html=1;rounded=0;exitX=1;exitY=0.5;exitDx=0;exitDy=0;" edge="1" parent="1" source="rzbT1TYOIwulQJLnCchb-25">
          <mxGeometry width="50" height="50" relative="1" as="geometry">
            <mxPoint x="170" y="501" as="sourcePoint" />
            <mxPoint x="200" y="501" as="targetPoint" />
          </mxGeometry>
        </mxCell>
        <mxCell id="rzbT1TYOIwulQJLnCchb-28" value="&lt;span style=&quot;color: rgb(32 , 33 , 36) ; font-family: &amp;#34;roboto&amp;#34; , &amp;#34;arial&amp;#34; , sans-serif ; font-size: 16px ; text-align: left&quot;&gt;≥&lt;/span&gt;&lt;span style=&quot;color: rgb(32 , 33 , 36) ; font-family: &amp;#34;roboto&amp;#34; , &amp;#34;arial&amp;#34; , sans-serif ; font-size: 16px ; text-align: left&quot;&gt;0&lt;/span&gt;" style="ellipse;whiteSpace=wrap;html=1;aspect=fixed;fillColor=#f8cecc;strokeColor=#b85450;" vertex="1" parent="1">
          <mxGeometry x="200" y="441" width="40" height="40" as="geometry" />
        </mxCell>
        <mxCell id="rzbT1TYOIwulQJLnCchb-29" value="&lt;span style=&quot;color: rgb(32 , 33 , 36) ; font-family: &amp;#34;roboto&amp;#34; , &amp;#34;arial&amp;#34; , sans-serif ; font-size: 16px ; text-align: left ; background-color: rgb(248 , 206 , 204)&quot;&gt;≤&lt;/span&gt;&lt;span style=&quot;color: rgb(32 , 33 , 36) ; font-family: &amp;#34;roboto&amp;#34; , &amp;#34;arial&amp;#34; , sans-serif ; font-size: 16px ; text-align: left ; background-color: rgb(248 , 206 , 204)&quot;&gt;0&lt;/span&gt;" style="ellipse;whiteSpace=wrap;html=1;aspect=fixed;fillColor=#f8cecc;strokeColor=#b85450;" vertex="1" parent="1">
          <mxGeometry x="200" y="481" width="40" height="40" as="geometry" />
        </mxCell>
        <mxCell id="rzbT1TYOIwulQJLnCchb-30" value="-4" style="ellipse;whiteSpace=wrap;html=1;aspect=fixed;fillColor=#dae8fc;strokeColor=#6c8ebf;" vertex="1" parent="1">
          <mxGeometry x="119.99999999999999" y="521" width="40" height="40" as="geometry" />
        </mxCell>
        <mxCell id="rzbT1TYOIwulQJLnCchb-31" value="" style="endArrow=classic;html=1;rounded=0;exitX=1;exitY=0.5;exitDx=0;exitDy=0;" edge="1" parent="1" source="rzbT1TYOIwulQJLnCchb-30">
          <mxGeometry width="50" height="50" relative="1" as="geometry">
            <mxPoint x="170" y="541" as="sourcePoint" />
            <mxPoint x="200" y="541" as="targetPoint" />
          </mxGeometry>
        </mxCell>
        <mxCell id="rzbT1TYOIwulQJLnCchb-32" value="&lt;span style=&quot;color: rgb(32 , 33 , 36) ; font-family: &amp;#34;roboto&amp;#34; , &amp;#34;arial&amp;#34; , sans-serif ; font-size: 16px ; text-align: left&quot;&gt;≥&lt;/span&gt;&lt;span style=&quot;color: rgb(32 , 33 , 36) ; font-family: &amp;#34;roboto&amp;#34; , &amp;#34;arial&amp;#34; , sans-serif ; font-size: 16px ; text-align: left&quot;&gt;0&lt;/span&gt;" style="ellipse;whiteSpace=wrap;html=1;aspect=fixed;fillColor=#f8cecc;strokeColor=#b85450;" vertex="1" parent="1">
          <mxGeometry x="200" y="521" width="40" height="40" as="geometry" />
        </mxCell>
        <mxCell id="rzbT1TYOIwulQJLnCchb-33" value="-8" style="ellipse;whiteSpace=wrap;html=1;aspect=fixed;fillColor=#dae8fc;strokeColor=#6c8ebf;" vertex="1" parent="1">
          <mxGeometry x="119.99999999999999" y="401" width="40" height="40" as="geometry" />
        </mxCell>
        <mxCell id="rzbT1TYOIwulQJLnCchb-34" value="" style="endArrow=classic;html=1;rounded=0;exitX=1;exitY=0.5;exitDx=0;exitDy=0;" edge="1" parent="1" source="rzbT1TYOIwulQJLnCchb-33">
          <mxGeometry width="50" height="50" relative="1" as="geometry">
            <mxPoint x="170" y="411" as="sourcePoint" />
            <mxPoint x="200" y="421" as="targetPoint" />
          </mxGeometry>
        </mxCell>
        <mxCell id="rzbT1TYOIwulQJLnCchb-35" value="&lt;span style=&quot;color: rgb(32 , 33 , 36) ; font-family: &amp;#34;roboto&amp;#34; , &amp;#34;arial&amp;#34; , sans-serif ; font-size: 16px ; text-align: left ; background-color: rgb(248 , 206 , 204)&quot;&gt;≤&lt;/span&gt;&lt;span style=&quot;color: rgb(32 , 33 , 36) ; font-family: &amp;#34;roboto&amp;#34; , &amp;#34;arial&amp;#34; , sans-serif ; font-size: 16px ; text-align: left ; background-color: rgb(248 , 206 , 204)&quot;&gt;0&lt;/span&gt;" style="ellipse;whiteSpace=wrap;html=1;aspect=fixed;fillColor=#f8cecc;strokeColor=#b85450;" vertex="1" parent="1">
          <mxGeometry x="200" y="401" width="40" height="40" as="geometry" />
        </mxCell>
        <mxCell id="rzbT1TYOIwulQJLnCchb-36" value="-4" style="ellipse;whiteSpace=wrap;html=1;aspect=fixed;fillColor=#dae8fc;strokeColor=#6c8ebf;" vertex="1" parent="1">
          <mxGeometry x="119.99999999999999" y="561" width="40" height="40" as="geometry" />
        </mxCell>
        <mxCell id="rzbT1TYOIwulQJLnCchb-37" value="" style="endArrow=classic;html=1;rounded=0;exitX=1;exitY=0.5;exitDx=0;exitDy=0;" edge="1" parent="1" source="rzbT1TYOIwulQJLnCchb-36">
          <mxGeometry width="50" height="50" relative="1" as="geometry">
            <mxPoint x="170" y="581" as="sourcePoint" />
            <mxPoint x="200" y="581" as="targetPoint" />
          </mxGeometry>
        </mxCell>
        <mxCell id="rzbT1TYOIwulQJLnCchb-38" value="&lt;span style=&quot;color: rgb(32 , 33 , 36) ; font-family: &amp;#34;roboto&amp;#34; , &amp;#34;arial&amp;#34; , sans-serif ; font-size: 16px ; text-align: left ; background-color: rgb(248 , 206 , 204)&quot;&gt;≤&lt;/span&gt;&lt;span style=&quot;color: rgb(32 , 33 , 36) ; font-family: &amp;#34;roboto&amp;#34; , &amp;#34;arial&amp;#34; , sans-serif ; font-size: 16px ; text-align: left ; background-color: rgb(248 , 206 , 204)&quot;&gt;0&lt;/span&gt;" style="ellipse;whiteSpace=wrap;html=1;aspect=fixed;fillColor=#f8cecc;strokeColor=#b85450;" vertex="1" parent="1">
          <mxGeometry x="200" y="561" width="40" height="40" as="geometry" />
        </mxCell>
        <mxCell id="rzbT1TYOIwulQJLnCchb-39" value="-2" style="ellipse;whiteSpace=wrap;html=1;aspect=fixed;fillColor=#dae8fc;strokeColor=#6c8ebf;" vertex="1" parent="1">
          <mxGeometry x="119.99999999999999" y="601" width="40" height="40" as="geometry" />
        </mxCell>
        <mxCell id="rzbT1TYOIwulQJLnCchb-40" value="" style="endArrow=classic;html=1;rounded=0;exitX=1;exitY=0.5;exitDx=0;exitDy=0;" edge="1" parent="1" source="rzbT1TYOIwulQJLnCchb-39">
          <mxGeometry width="50" height="50" relative="1" as="geometry">
            <mxPoint x="170" y="621" as="sourcePoint" />
            <mxPoint x="200" y="621" as="targetPoint" />
          </mxGeometry>
        </mxCell>
        <mxCell id="rzbT1TYOIwulQJLnCchb-41" value="&lt;span style=&quot;color: rgb(32 , 33 , 36) ; font-family: &amp;#34;roboto&amp;#34; , &amp;#34;arial&amp;#34; , sans-serif ; font-size: 16px ; text-align: left&quot;&gt;≥&lt;/span&gt;&lt;span style=&quot;color: rgb(32 , 33 , 36) ; font-family: &amp;#34;roboto&amp;#34; , &amp;#34;arial&amp;#34; , sans-serif ; font-size: 16px ; text-align: left&quot;&gt;0&lt;/span&gt;" style="ellipse;whiteSpace=wrap;html=1;aspect=fixed;fillColor=#f8cecc;strokeColor=#b85450;" vertex="1" parent="1">
          <mxGeometry x="200" y="601" width="40" height="40" as="geometry" />
        </mxCell>
        <mxCell id="rzbT1TYOIwulQJLnCchb-42" value="" style="endArrow=classic;html=1;rounded=0;entryX=0;entryY=0.5;entryDx=0;entryDy=0;exitX=1;exitY=0.5;exitDx=0;exitDy=0;" edge="1" parent="1" target="rzbT1TYOIwulQJLnCchb-33" source="X48cYuM6y2Ta0CUNgX4l-42">
          <mxGeometry width="50" height="50" relative="1" as="geometry">
            <mxPoint x="90" y="370" as="sourcePoint" />
            <mxPoint x="99.99999999999999" y="441" as="targetPoint" />
          </mxGeometry>
        </mxCell>
        <mxCell id="rzbT1TYOIwulQJLnCchb-43" value="" style="endArrow=classic;html=1;rounded=0;entryX=0;entryY=0.5;entryDx=0;entryDy=0;exitX=1;exitY=0.5;exitDx=0;exitDy=0;" edge="1" parent="1" target="rzbT1TYOIwulQJLnCchb-24" source="X48cYuM6y2Ta0CUNgX4l-42">
          <mxGeometry width="50" height="50" relative="1" as="geometry">
            <mxPoint x="79.99999999999999" y="411" as="sourcePoint" />
            <mxPoint x="110.00000000000192" y="471" as="targetPoint" />
          </mxGeometry>
        </mxCell>
        <mxCell id="rzbT1TYOIwulQJLnCchb-44" value="" style="endArrow=classic;html=1;rounded=0;exitX=1;exitY=0.5;exitDx=0;exitDy=0;entryX=0;entryY=0.5;entryDx=0;entryDy=0;" edge="1" parent="1" target="rzbT1TYOIwulQJLnCchb-25" source="X48cYuM6y2Ta0CUNgX4l-42">
          <mxGeometry width="50" height="50" relative="1" as="geometry">
            <mxPoint x="79.99999999999999" y="411" as="sourcePoint" />
            <mxPoint x="100.00000000000192" y="471" as="targetPoint" />
          </mxGeometry>
        </mxCell>
        <mxCell id="rzbT1TYOIwulQJLnCchb-45" value="" style="endArrow=classic;html=1;rounded=0;exitX=1;exitY=0.5;exitDx=0;exitDy=0;entryX=0;entryY=0.5;entryDx=0;entryDy=0;" edge="1" parent="1" source="X48cYuM6y2Ta0CUNgX4l-2" target="rzbT1TYOIwulQJLnCchb-8">
          <mxGeometry width="50" height="50" relative="1" as="geometry">
            <mxPoint x="60" y="10" as="sourcePoint" />
            <mxPoint x="100.00000000000011" y="100" as="targetPoint" />
          </mxGeometry>
        </mxCell>
        <mxCell id="rzbT1TYOIwulQJLnCchb-46" value="" style="endArrow=classic;html=1;rounded=0;exitX=1;exitY=0.5;exitDx=0;exitDy=0;entryX=0;entryY=0.5;entryDx=0;entryDy=0;" edge="1" parent="1" source="X48cYuM6y2Ta0CUNgX4l-2" target="rzbT1TYOIwulQJLnCchb-14">
          <mxGeometry width="50" height="50" relative="1" as="geometry">
            <mxPoint x="40" y="40" as="sourcePoint" />
            <mxPoint x="80.00000000000011" y="130" as="targetPoint" />
          </mxGeometry>
        </mxCell>
        <mxCell id="rzbT1TYOIwulQJLnCchb-47" value="" style="endArrow=classic;html=1;rounded=0;entryX=0;entryY=0.5;entryDx=0;entryDy=0;exitX=1;exitY=0.5;exitDx=0;exitDy=0;" edge="1" parent="1" source="X48cYuM6y2Ta0CUNgX4l-2" target="rzbT1TYOIwulQJLnCchb-17">
          <mxGeometry width="50" height="50" relative="1" as="geometry">
            <mxPoint x="80" y="-20" as="sourcePoint" />
            <mxPoint x="100.00000000000011" y="170" as="targetPoint" />
          </mxGeometry>
        </mxCell>
        <mxCell id="rzbT1TYOIwulQJLnCchb-50" value="" style="endArrow=classic;html=1;rounded=0;exitX=1;exitY=0.5;exitDx=0;exitDy=0;entryX=0;entryY=0.5;entryDx=0;entryDy=0;" edge="1" parent="1" source="X48cYuM6y2Ta0CUNgX4l-42" target="rzbT1TYOIwulQJLnCchb-30">
          <mxGeometry width="50" height="50" relative="1" as="geometry">
            <mxPoint x="40" y="420" as="sourcePoint" />
            <mxPoint x="100" y="531" as="targetPoint" />
          </mxGeometry>
        </mxCell>
        <mxCell id="rzbT1TYOIwulQJLnCchb-51" value="" style="endArrow=classic;html=1;rounded=0;exitX=1;exitY=0.5;exitDx=0;exitDy=0;entryX=0;entryY=0.5;entryDx=0;entryDy=0;" edge="1" parent="1" source="X48cYuM6y2Ta0CUNgX4l-42" target="rzbT1TYOIwulQJLnCchb-36">
          <mxGeometry width="50" height="50" relative="1" as="geometry">
            <mxPoint x="10" y="470" as="sourcePoint" />
            <mxPoint x="70" y="581" as="targetPoint" />
          </mxGeometry>
        </mxCell>
        <mxCell id="rzbT1TYOIwulQJLnCchb-52" value="" style="endArrow=classic;html=1;rounded=0;exitX=1;exitY=0.5;exitDx=0;exitDy=0;entryX=0;entryY=0.5;entryDx=0;entryDy=0;" edge="1" parent="1" source="X48cYuM6y2Ta0CUNgX4l-42" target="rzbT1TYOIwulQJLnCchb-39">
          <mxGeometry width="50" height="50" relative="1" as="geometry">
            <mxPoint x="-30" y="500" as="sourcePoint" />
            <mxPoint x="30" y="611" as="targetPoint" />
          </mxGeometry>
        </mxCell>
        <mxCell id="rzbT1TYOIwulQJLnCchb-53" value="&lt;span style=&quot;color: rgb(32 , 33 , 36) ; font-family: &amp;#34;roboto&amp;#34; , &amp;#34;arial&amp;#34; , sans-serif ; font-size: 16px ; text-align: left ; background-color: rgb(212 , 225 , 245)&quot;&gt;0&lt;/span&gt;" style="ellipse;whiteSpace=wrap;html=1;aspect=fixed;fillColor=#dae8fc;strokeColor=#6c8ebf;" vertex="1" parent="1">
          <mxGeometry x="280" y="-180" width="40" height="40" as="geometry" />
        </mxCell>
        <mxCell id="rzbT1TYOIwulQJLnCchb-54" value="&lt;span style=&quot;color: rgb(32 , 33 , 36) ; font-family: &amp;#34;roboto&amp;#34; , &amp;#34;arial&amp;#34; , sans-serif ; font-size: 16px ; text-align: left ; background-color: rgb(212 , 225 , 245)&quot;&gt;0&lt;/span&gt;" style="ellipse;whiteSpace=wrap;html=1;aspect=fixed;fillColor=#dae8fc;strokeColor=#6c8ebf;" vertex="1" parent="1">
          <mxGeometry x="280" y="-100" width="40" height="40" as="geometry" />
        </mxCell>
        <mxCell id="rzbT1TYOIwulQJLnCchb-57" value="" style="endArrow=classic;html=1;rounded=0;exitX=1;exitY=0.5;exitDx=0;exitDy=0;entryX=0;entryY=0.5;entryDx=0;entryDy=0;" edge="1" parent="1" source="rzbT1TYOIwulQJLnCchb-53" target="X48cYuM6y2Ta0CUNgX4l-21">
          <mxGeometry width="50" height="50" relative="1" as="geometry">
            <mxPoint x="540" y="-130" as="sourcePoint" />
            <mxPoint x="590" y="-180" as="targetPoint" />
          </mxGeometry>
        </mxCell>
        <mxCell id="rzbT1TYOIwulQJLnCchb-58" value="" style="endArrow=classic;html=1;rounded=0;exitX=1;exitY=0.5;exitDx=0;exitDy=0;entryX=0;entryY=0.5;entryDx=0;entryDy=0;" edge="1" parent="1" source="rzbT1TYOIwulQJLnCchb-54" target="X48cYuM6y2Ta0CUNgX4l-81">
          <mxGeometry width="50" height="50" relative="1" as="geometry">
            <mxPoint x="320.0000000000002" y="-39.99999999999994" as="sourcePoint" />
            <mxPoint x="360.0000000000002" y="-39.99999999999994" as="targetPoint" />
          </mxGeometry>
        </mxCell>
        <mxCell id="rzbT1TYOIwulQJLnCchb-59" value="hidden layer 2" style="text;html=1;strokeColor=none;fillColor=none;align=center;verticalAlign=middle;whiteSpace=wrap;rounded=0;" vertex="1" parent="1">
          <mxGeometry x="270" y="-240" width="60" height="30" as="geometry" />
        </mxCell>
        <mxCell id="rzbT1TYOIwulQJLnCchb-71" value="&lt;span style=&quot;color: rgb(32 , 33 , 36) ; font-family: &amp;#34;roboto&amp;#34; , &amp;#34;arial&amp;#34; , sans-serif ; font-size: 16px ; text-align: left ; background-color: rgb(248 , 206 , 204)&quot;&gt;≥2&lt;/span&gt;" style="ellipse;whiteSpace=wrap;html=1;aspect=fixed;fillColor=#f8cecc;strokeColor=#b85450;" vertex="1" parent="1">
          <mxGeometry x="360" y="-20" width="40" height="40" as="geometry" />
        </mxCell>
        <mxCell id="rzbT1TYOIwulQJLnCchb-72" value="&lt;span style=&quot;color: rgb(32 , 33 , 36) ; font-family: &amp;#34;roboto&amp;#34; , &amp;#34;arial&amp;#34; , sans-serif ; font-size: 16px ; text-align: left ; background-color: rgb(248 , 206 , 204)&quot;&gt;≥2&lt;/span&gt;" style="ellipse;whiteSpace=wrap;html=1;aspect=fixed;fillColor=#f8cecc;strokeColor=#b85450;" vertex="1" parent="1">
          <mxGeometry x="360" y="60" width="40" height="40" as="geometry" />
        </mxCell>
        <mxCell id="rzbT1TYOIwulQJLnCchb-73" value="&lt;span style=&quot;color: rgb(32 , 33 , 36) ; font-family: &amp;#34;roboto&amp;#34; , &amp;#34;arial&amp;#34; , sans-serif ; font-size: 16px ; text-align: left ; background-color: rgb(212 , 225 , 245)&quot;&gt;0&lt;/span&gt;" style="ellipse;whiteSpace=wrap;html=1;aspect=fixed;fillColor=#dae8fc;strokeColor=#6c8ebf;" vertex="1" parent="1">
          <mxGeometry x="280" y="-20" width="40" height="40" as="geometry" />
        </mxCell>
        <mxCell id="rzbT1TYOIwulQJLnCchb-74" value="&lt;span style=&quot;color: rgb(32 , 33 , 36) ; font-family: &amp;#34;roboto&amp;#34; , &amp;#34;arial&amp;#34; , sans-serif ; font-size: 16px ; text-align: left ; background-color: rgb(212 , 225 , 245)&quot;&gt;0&lt;/span&gt;" style="ellipse;whiteSpace=wrap;html=1;aspect=fixed;fillColor=#dae8fc;strokeColor=#6c8ebf;" vertex="1" parent="1">
          <mxGeometry x="280" y="60" width="40" height="40" as="geometry" />
        </mxCell>
        <mxCell id="rzbT1TYOIwulQJLnCchb-75" value="" style="endArrow=classic;html=1;rounded=0;exitX=1;exitY=0.5;exitDx=0;exitDy=0;entryX=0;entryY=0.5;entryDx=0;entryDy=0;" edge="1" parent="1" source="rzbT1TYOIwulQJLnCchb-73" target="rzbT1TYOIwulQJLnCchb-71">
          <mxGeometry width="50" height="50" relative="1" as="geometry">
            <mxPoint x="540" y="30" as="sourcePoint" />
            <mxPoint x="590" y="-20" as="targetPoint" />
          </mxGeometry>
        </mxCell>
        <mxCell id="rzbT1TYOIwulQJLnCchb-76" value="" style="endArrow=classic;html=1;rounded=0;exitX=1;exitY=0.5;exitDx=0;exitDy=0;entryX=0;entryY=0.5;entryDx=0;entryDy=0;" edge="1" parent="1" source="rzbT1TYOIwulQJLnCchb-74" target="rzbT1TYOIwulQJLnCchb-72">
          <mxGeometry width="50" height="50" relative="1" as="geometry">
            <mxPoint x="320.0000000000002" y="120.00000000000006" as="sourcePoint" />
            <mxPoint x="360.0000000000002" y="120.00000000000006" as="targetPoint" />
          </mxGeometry>
        </mxCell>
        <mxCell id="rzbT1TYOIwulQJLnCchb-77" value="&lt;span style=&quot;color: rgb(32 , 33 , 36) ; font-family: &amp;#34;roboto&amp;#34; , &amp;#34;arial&amp;#34; , sans-serif ; font-size: 16px ; text-align: left ; background-color: rgb(248 , 206 , 204)&quot;&gt;≥2&lt;/span&gt;" style="ellipse;whiteSpace=wrap;html=1;aspect=fixed;fillColor=#f8cecc;strokeColor=#b85450;" vertex="1" parent="1">
          <mxGeometry x="360" y="140" width="40" height="40" as="geometry" />
        </mxCell>
        <mxCell id="rzbT1TYOIwulQJLnCchb-78" value="&lt;span style=&quot;color: rgb(32 , 33 , 36) ; font-family: &amp;#34;roboto&amp;#34; , &amp;#34;arial&amp;#34; , sans-serif ; font-size: 16px ; text-align: left ; background-color: rgb(212 , 225 , 245)&quot;&gt;0&lt;/span&gt;" style="ellipse;whiteSpace=wrap;html=1;aspect=fixed;fillColor=#dae8fc;strokeColor=#6c8ebf;" vertex="1" parent="1">
          <mxGeometry x="280" y="140" width="40" height="40" as="geometry" />
        </mxCell>
        <mxCell id="rzbT1TYOIwulQJLnCchb-79" value="" style="endArrow=classic;html=1;rounded=0;exitX=1;exitY=0.5;exitDx=0;exitDy=0;entryX=0;entryY=0.5;entryDx=0;entryDy=0;" edge="1" parent="1" source="rzbT1TYOIwulQJLnCchb-78" target="rzbT1TYOIwulQJLnCchb-77">
          <mxGeometry width="50" height="50" relative="1" as="geometry">
            <mxPoint x="320.0000000000002" y="200.00000000000006" as="sourcePoint" />
            <mxPoint x="360.0000000000002" y="200.00000000000006" as="targetPoint" />
          </mxGeometry>
        </mxCell>
        <mxCell id="rzbT1TYOIwulQJLnCchb-80" style="edgeStyle=orthogonalEdgeStyle;rounded=0;orthogonalLoop=1;jettySize=auto;html=1;exitX=1;exitY=0.5;exitDx=0;exitDy=0;" edge="1" parent="1">
          <mxGeometry relative="1" as="geometry">
            <mxPoint x="260.3103448275865" y="468.75862068965523" as="targetPoint" />
            <mxPoint x="260.0000000000002" y="469" as="sourcePoint" />
          </mxGeometry>
        </mxCell>
        <mxCell id="rzbT1TYOIwulQJLnCchb-81" value="&lt;span style=&quot;color: rgb(32 , 33 , 36) ; font-family: &amp;#34;roboto&amp;#34; , &amp;#34;arial&amp;#34; , sans-serif ; font-size: 16px ; text-align: left ; background-color: rgb(248 , 206 , 204)&quot;&gt;≥2&lt;/span&gt;" style="ellipse;whiteSpace=wrap;html=1;aspect=fixed;fillColor=#f8cecc;strokeColor=#b85450;" vertex="1" parent="1">
          <mxGeometry x="360" y="420" width="40" height="40" as="geometry" />
        </mxCell>
        <mxCell id="rzbT1TYOIwulQJLnCchb-82" value="&lt;span style=&quot;color: rgb(32 , 33 , 36) ; font-family: &amp;#34;roboto&amp;#34; , &amp;#34;arial&amp;#34; , sans-serif ; font-size: 16px ; text-align: left ; background-color: rgb(248 , 206 , 204)&quot;&gt;≥2&lt;/span&gt;" style="ellipse;whiteSpace=wrap;html=1;aspect=fixed;fillColor=#f8cecc;strokeColor=#b85450;" vertex="1" parent="1">
          <mxGeometry x="360" y="500" width="40" height="40" as="geometry" />
        </mxCell>
        <mxCell id="rzbT1TYOIwulQJLnCchb-83" value="&lt;span style=&quot;color: rgb(32 , 33 , 36) ; font-family: &amp;#34;roboto&amp;#34; , &amp;#34;arial&amp;#34; , sans-serif ; font-size: 16px ; text-align: left ; background-color: rgb(212 , 225 , 245)&quot;&gt;0&lt;/span&gt;" style="ellipse;whiteSpace=wrap;html=1;aspect=fixed;fillColor=#dae8fc;strokeColor=#6c8ebf;" vertex="1" parent="1">
          <mxGeometry x="280" y="420" width="40" height="40" as="geometry" />
        </mxCell>
        <mxCell id="rzbT1TYOIwulQJLnCchb-84" value="&lt;span style=&quot;color: rgb(32 , 33 , 36) ; font-family: &amp;#34;roboto&amp;#34; , &amp;#34;arial&amp;#34; , sans-serif ; font-size: 16px ; text-align: left ; background-color: rgb(212 , 225 , 245)&quot;&gt;0&lt;/span&gt;" style="ellipse;whiteSpace=wrap;html=1;aspect=fixed;fillColor=#dae8fc;strokeColor=#6c8ebf;" vertex="1" parent="1">
          <mxGeometry x="280" y="500" width="40" height="40" as="geometry" />
        </mxCell>
        <mxCell id="rzbT1TYOIwulQJLnCchb-85" value="" style="endArrow=classic;html=1;rounded=0;exitX=1;exitY=0.5;exitDx=0;exitDy=0;entryX=0;entryY=0.5;entryDx=0;entryDy=0;" edge="1" parent="1" source="rzbT1TYOIwulQJLnCchb-83" target="rzbT1TYOIwulQJLnCchb-81">
          <mxGeometry width="50" height="50" relative="1" as="geometry">
            <mxPoint x="540" y="470" as="sourcePoint" />
            <mxPoint x="590" y="420" as="targetPoint" />
          </mxGeometry>
        </mxCell>
        <mxCell id="rzbT1TYOIwulQJLnCchb-86" value="" style="endArrow=classic;html=1;rounded=0;exitX=1;exitY=0.5;exitDx=0;exitDy=0;entryX=0;entryY=0.5;entryDx=0;entryDy=0;" edge="1" parent="1" source="rzbT1TYOIwulQJLnCchb-84" target="rzbT1TYOIwulQJLnCchb-82">
          <mxGeometry width="50" height="50" relative="1" as="geometry">
            <mxPoint x="320.0000000000002" y="560" as="sourcePoint" />
            <mxPoint x="360.0000000000002" y="560" as="targetPoint" />
          </mxGeometry>
        </mxCell>
        <mxCell id="rzbT1TYOIwulQJLnCchb-87" value="&lt;span style=&quot;color: rgb(32 , 33 , 36) ; font-family: &amp;#34;roboto&amp;#34; , &amp;#34;arial&amp;#34; , sans-serif ; font-size: 16px ; text-align: left ; background-color: rgb(248 , 206 , 204)&quot;&gt;≥2&lt;/span&gt;" style="ellipse;whiteSpace=wrap;html=1;aspect=fixed;fillColor=#f8cecc;strokeColor=#b85450;" vertex="1" parent="1">
          <mxGeometry x="360" y="580" width="40" height="40" as="geometry" />
        </mxCell>
        <mxCell id="rzbT1TYOIwulQJLnCchb-88" value="&lt;span style=&quot;color: rgb(32 , 33 , 36) ; font-family: &amp;#34;roboto&amp;#34; , &amp;#34;arial&amp;#34; , sans-serif ; font-size: 16px ; text-align: left ; background-color: rgb(212 , 225 , 245)&quot;&gt;0&lt;/span&gt;" style="ellipse;whiteSpace=wrap;html=1;aspect=fixed;fillColor=#dae8fc;strokeColor=#6c8ebf;" vertex="1" parent="1">
          <mxGeometry x="280" y="580" width="40" height="40" as="geometry" />
        </mxCell>
        <mxCell id="rzbT1TYOIwulQJLnCchb-89" value="" style="endArrow=classic;html=1;rounded=0;exitX=1;exitY=0.5;exitDx=0;exitDy=0;entryX=0;entryY=0.5;entryDx=0;entryDy=0;" edge="1" parent="1" source="rzbT1TYOIwulQJLnCchb-88" target="rzbT1TYOIwulQJLnCchb-87">
          <mxGeometry width="50" height="50" relative="1" as="geometry">
            <mxPoint x="320.0000000000002" y="640" as="sourcePoint" />
            <mxPoint x="360.0000000000002" y="640" as="targetPoint" />
          </mxGeometry>
        </mxCell>
        <mxCell id="rzbT1TYOIwulQJLnCchb-90" value="&lt;span style=&quot;color: rgb(32 , 33 , 36) ; font-family: &amp;#34;roboto&amp;#34; , &amp;#34;arial&amp;#34; , sans-serif ; font-size: 16px ; text-align: left ; background-color: rgb(212 , 225 , 245)&quot;&gt;0&lt;/span&gt;" style="ellipse;whiteSpace=wrap;html=1;aspect=fixed;fillColor=#dae8fc;strokeColor=#6c8ebf;" vertex="1" parent="1">
          <mxGeometry x="280" y="260" width="40" height="40" as="geometry" />
        </mxCell>
        <mxCell id="rzbT1TYOIwulQJLnCchb-91" value="&lt;span style=&quot;color: rgb(32 , 33 , 36) ; font-family: &amp;#34;roboto&amp;#34; , &amp;#34;arial&amp;#34; , sans-serif ; font-size: 16px ; text-align: left ; background-color: rgb(212 , 225 , 245)&quot;&gt;0&lt;/span&gt;" style="ellipse;whiteSpace=wrap;html=1;aspect=fixed;fillColor=#dae8fc;strokeColor=#6c8ebf;" vertex="1" parent="1">
          <mxGeometry x="280" y="340" width="40" height="40" as="geometry" />
        </mxCell>
        <mxCell id="rzbT1TYOIwulQJLnCchb-92" value="" style="endArrow=classic;html=1;rounded=0;exitX=1;exitY=0.5;exitDx=0;exitDy=0;entryX=0;entryY=0.5;entryDx=0;entryDy=0;" edge="1" parent="1" source="rzbT1TYOIwulQJLnCchb-90" target="X48cYuM6y2Ta0CUNgX4l-98">
          <mxGeometry width="50" height="50" relative="1" as="geometry">
            <mxPoint x="320.0000000000002" y="220" as="sourcePoint" />
            <mxPoint x="360.0000000000002" y="220" as="targetPoint" />
          </mxGeometry>
        </mxCell>
        <mxCell id="rzbT1TYOIwulQJLnCchb-93" value="" style="endArrow=classic;html=1;rounded=0;exitX=1;exitY=0.5;exitDx=0;exitDy=0;entryX=0;entryY=0.5;entryDx=0;entryDy=0;" edge="1" parent="1" source="rzbT1TYOIwulQJLnCchb-91" target="X48cYuM6y2Ta0CUNgX4l-109">
          <mxGeometry width="50" height="50" relative="1" as="geometry">
            <mxPoint x="340.0000000000002" y="190" as="sourcePoint" />
            <mxPoint x="380.0000000000002" y="190" as="targetPoint" />
          </mxGeometry>
        </mxCell>
        <mxCell id="rzbT1TYOIwulQJLnCchb-97" value="" style="endArrow=classic;html=1;rounded=0;exitX=1;exitY=0.5;exitDx=0;exitDy=0;entryX=0;entryY=0.5;entryDx=0;entryDy=0;" edge="1" parent="1">
          <mxGeometry width="50" height="50" relative="1" as="geometry">
            <mxPoint x="240" y="20" as="sourcePoint" />
            <mxPoint x="280.0000000000002" as="targetPoint" />
          </mxGeometry>
        </mxCell>
        <mxCell id="rzbT1TYOIwulQJLnCchb-98" value="" style="endArrow=classic;html=1;rounded=0;exitX=1;exitY=0.5;exitDx=0;exitDy=0;entryX=0;entryY=0.5;entryDx=0;entryDy=0;" edge="1" parent="1">
          <mxGeometry width="50" height="50" relative="1" as="geometry">
            <mxPoint x="240" y="-20" as="sourcePoint" />
            <mxPoint x="280.0000000000002" as="targetPoint" />
          </mxGeometry>
        </mxCell>
        <mxCell id="rzbT1TYOIwulQJLnCchb-99" value="" style="endArrow=classic;html=1;rounded=0;exitX=1;exitY=0.5;exitDx=0;exitDy=0;entryX=0;entryY=0.5;entryDx=0;entryDy=0;" edge="1" parent="1">
          <mxGeometry width="50" height="50" relative="1" as="geometry">
            <mxPoint x="240" y="100" as="sourcePoint" />
            <mxPoint x="280.0000000000002" y="80" as="targetPoint" />
          </mxGeometry>
        </mxCell>
        <mxCell id="rzbT1TYOIwulQJLnCchb-100" value="" style="endArrow=classic;html=1;rounded=0;exitX=1;exitY=0.5;exitDx=0;exitDy=0;entryX=0;entryY=0.5;entryDx=0;entryDy=0;" edge="1" parent="1">
          <mxGeometry width="50" height="50" relative="1" as="geometry">
            <mxPoint x="240" y="60" as="sourcePoint" />
            <mxPoint x="280.0000000000002" y="80" as="targetPoint" />
          </mxGeometry>
        </mxCell>
        <mxCell id="rzbT1TYOIwulQJLnCchb-101" value="" style="endArrow=classic;html=1;rounded=0;exitX=1;exitY=0.5;exitDx=0;exitDy=0;entryX=0;entryY=0.5;entryDx=0;entryDy=0;" edge="1" parent="1">
          <mxGeometry width="50" height="50" relative="1" as="geometry">
            <mxPoint x="240" y="180" as="sourcePoint" />
            <mxPoint x="280.0000000000002" y="160" as="targetPoint" />
          </mxGeometry>
        </mxCell>
        <mxCell id="rzbT1TYOIwulQJLnCchb-102" value="" style="endArrow=classic;html=1;rounded=0;exitX=1;exitY=0.5;exitDx=0;exitDy=0;entryX=0;entryY=0.5;entryDx=0;entryDy=0;" edge="1" parent="1">
          <mxGeometry width="50" height="50" relative="1" as="geometry">
            <mxPoint x="240" y="140" as="sourcePoint" />
            <mxPoint x="280.0000000000002" y="160" as="targetPoint" />
          </mxGeometry>
        </mxCell>
        <mxCell id="rzbT1TYOIwulQJLnCchb-104" value="" style="endArrow=classic;html=1;rounded=0;exitX=1;exitY=0.5;exitDx=0;exitDy=0;entryX=0;entryY=0.5;entryDx=0;entryDy=0;" edge="1" parent="1">
          <mxGeometry width="50" height="50" relative="1" as="geometry">
            <mxPoint x="240" y="420" as="sourcePoint" />
            <mxPoint x="280.0000000000002" y="439" as="targetPoint" />
          </mxGeometry>
        </mxCell>
        <mxCell id="rzbT1TYOIwulQJLnCchb-105" value="" style="endArrow=classic;html=1;rounded=0;exitX=1;exitY=0.5;exitDx=0;exitDy=0;entryX=0;entryY=0.5;entryDx=0;entryDy=0;" edge="1" parent="1">
          <mxGeometry width="50" height="50" relative="1" as="geometry">
            <mxPoint x="239.99999999999795" y="460" as="sourcePoint" />
            <mxPoint x="280.0000000000002" y="439" as="targetPoint" />
          </mxGeometry>
        </mxCell>
        <mxCell id="rzbT1TYOIwulQJLnCchb-106" value="" style="endArrow=classic;html=1;rounded=0;exitX=1;exitY=0.5;exitDx=0;exitDy=0;entryX=0;entryY=0.5;entryDx=0;entryDy=0;" edge="1" parent="1">
          <mxGeometry width="50" height="50" relative="1" as="geometry">
            <mxPoint x="240" y="580" as="sourcePoint" />
            <mxPoint x="280.0000000000002" y="599" as="targetPoint" />
          </mxGeometry>
        </mxCell>
        <mxCell id="rzbT1TYOIwulQJLnCchb-107" value="" style="endArrow=classic;html=1;rounded=0;exitX=1;exitY=0.5;exitDx=0;exitDy=0;entryX=0;entryY=0.5;entryDx=0;entryDy=0;" edge="1" parent="1">
          <mxGeometry width="50" height="50" relative="1" as="geometry">
            <mxPoint x="239.99999999999795" y="620" as="sourcePoint" />
            <mxPoint x="280.0000000000002" y="599" as="targetPoint" />
          </mxGeometry>
        </mxCell>
        <mxCell id="rzbT1TYOIwulQJLnCchb-108" value="" style="endArrow=classic;html=1;rounded=0;exitX=1;exitY=0.5;exitDx=0;exitDy=0;entryX=0;entryY=0.5;entryDx=0;entryDy=0;" edge="1" parent="1">
          <mxGeometry width="50" height="50" relative="1" as="geometry">
            <mxPoint x="240" y="500" as="sourcePoint" />
            <mxPoint x="280.0000000000002" y="519" as="targetPoint" />
          </mxGeometry>
        </mxCell>
        <mxCell id="rzbT1TYOIwulQJLnCchb-109" value="" style="endArrow=classic;html=1;rounded=0;exitX=1;exitY=0.5;exitDx=0;exitDy=0;entryX=0;entryY=0.5;entryDx=0;entryDy=0;" edge="1" parent="1">
          <mxGeometry width="50" height="50" relative="1" as="geometry">
            <mxPoint x="239.99999999999795" y="540" as="sourcePoint" />
            <mxPoint x="280.0000000000002" y="519" as="targetPoint" />
          </mxGeometry>
        </mxCell>
        <mxCell id="rzbT1TYOIwulQJLnCchb-110" value="&lt;span style=&quot;color: rgb(32 , 33 , 36) ; font-family: &amp;#34;roboto&amp;#34; , &amp;#34;arial&amp;#34; , sans-serif ; font-size: 16px ; text-align: left ; background-color: rgb(248 , 206 , 204)&quot;&gt;≥2&lt;/span&gt;" style="ellipse;whiteSpace=wrap;html=1;aspect=fixed;fillColor=#f8cecc;strokeColor=#b85450;" vertex="1" parent="1">
          <mxGeometry x="560" y="-80" width="40" height="40" as="geometry" />
        </mxCell>
        <mxCell id="rzbT1TYOIwulQJLnCchb-111" value="&lt;span style=&quot;color: rgb(32 , 33 , 36) ; font-family: &amp;#34;roboto&amp;#34; , &amp;#34;arial&amp;#34; , sans-serif ; font-size: 16px ; text-align: left ; background-color: rgb(248 , 206 , 204)&quot;&gt;&amp;lt;2&lt;/span&gt;" style="ellipse;whiteSpace=wrap;html=1;aspect=fixed;fillColor=#f8cecc;strokeColor=#b85450;" vertex="1" parent="1">
          <mxGeometry x="560" width="40" height="40" as="geometry" />
        </mxCell>
        <mxCell id="rzbT1TYOIwulQJLnCchb-113" value="" style="endArrow=classic;html=1;rounded=0;entryX=0;entryY=0.5;entryDx=0;entryDy=0;exitX=1;exitY=0.5;exitDx=0;exitDy=0;" edge="1" parent="1" source="X48cYuM6y2Ta0CUNgX4l-114" target="rzbT1TYOIwulQJLnCchb-110">
          <mxGeometry width="50" height="50" relative="1" as="geometry">
            <mxPoint x="540" y="-20" as="sourcePoint" />
            <mxPoint x="570" y="-30" as="targetPoint" />
          </mxGeometry>
        </mxCell>
        <mxCell id="rzbT1TYOIwulQJLnCchb-114" value="" style="endArrow=classic;html=1;rounded=0;entryX=0;entryY=0.5;entryDx=0;entryDy=0;" edge="1" parent="1" target="rzbT1TYOIwulQJLnCchb-111">
          <mxGeometry width="50" height="50" relative="1" as="geometry">
            <mxPoint x="520" y="20" as="sourcePoint" />
            <mxPoint x="560" y="-20" as="targetPoint" />
          </mxGeometry>
        </mxCell>
        <mxCell id="rzbT1TYOIwulQJLnCchb-116" value="&lt;span style=&quot;color: rgb(32 , 33 , 36) ; font-family: &amp;#34;roboto&amp;#34; , &amp;#34;arial&amp;#34; , sans-serif ; font-size: 16px ; text-align: left ; background-color: rgb(248 , 206 , 204)&quot;&gt;≥2&lt;/span&gt;" style="ellipse;whiteSpace=wrap;html=1;aspect=fixed;fillColor=#f8cecc;strokeColor=#b85450;" vertex="1" parent="1">
          <mxGeometry x="720" y="-40" width="40" height="40" as="geometry" />
        </mxCell>
        <mxCell id="rzbT1TYOIwulQJLnCchb-117" value="&lt;span style=&quot;color: rgb(32 , 33 , 36) ; font-family: &amp;#34;roboto&amp;#34; , &amp;#34;arial&amp;#34; , sans-serif ; font-size: 16px ; text-align: left ; background-color: rgb(212 , 225 , 245)&quot;&gt;0&lt;/span&gt;" style="ellipse;whiteSpace=wrap;html=1;aspect=fixed;fillColor=#dae8fc;strokeColor=#6c8ebf;" vertex="1" parent="1">
          <mxGeometry x="480" y="160" width="40" height="40" as="geometry" />
        </mxCell>
        <mxCell id="rzbT1TYOIwulQJLnCchb-118" value="&lt;span style=&quot;color: rgb(32 , 33 , 36) ; font-family: &amp;#34;roboto&amp;#34; , &amp;#34;arial&amp;#34; , sans-serif ; font-size: 16px ; text-align: left ; background-color: rgb(212 , 225 , 245)&quot;&gt;0&lt;/span&gt;" style="ellipse;whiteSpace=wrap;html=1;aspect=fixed;fillColor=#dae8fc;strokeColor=#6c8ebf;" vertex="1" parent="1">
          <mxGeometry x="480" y="240" width="40" height="40" as="geometry" />
        </mxCell>
        <mxCell id="rzbT1TYOIwulQJLnCchb-119" value="&lt;span style=&quot;color: rgb(32 , 33 , 36) ; font-family: &amp;#34;roboto&amp;#34; , &amp;#34;arial&amp;#34; , sans-serif ; font-size: 16px ; text-align: left ; background-color: rgb(212 , 225 , 245)&quot;&gt;0&lt;/span&gt;" style="ellipse;whiteSpace=wrap;html=1;aspect=fixed;fillColor=#dae8fc;strokeColor=#6c8ebf;" vertex="1" parent="1">
          <mxGeometry x="480" y="320" width="40" height="40" as="geometry" />
        </mxCell>
        <mxCell id="rzbT1TYOIwulQJLnCchb-122" value="" style="endArrow=classic;html=1;rounded=0;entryX=0;entryY=0.5;entryDx=0;entryDy=0;exitX=1;exitY=0.5;exitDx=0;exitDy=0;" edge="1" parent="1" source="rzbT1TYOIwulQJLnCchb-71" target="rzbT1TYOIwulQJLnCchb-117">
          <mxGeometry width="50" height="50" relative="1" as="geometry">
            <mxPoint x="350" y="220" as="sourcePoint" />
            <mxPoint x="400" y="170" as="targetPoint" />
          </mxGeometry>
        </mxCell>
        <mxCell id="rzbT1TYOIwulQJLnCchb-123" value="" style="endArrow=classic;html=1;rounded=0;exitX=1;exitY=0.5;exitDx=0;exitDy=0;entryX=0;entryY=0.5;entryDx=0;entryDy=0;" edge="1" parent="1" source="rzbT1TYOIwulQJLnCchb-72" target="rzbT1TYOIwulQJLnCchb-118">
          <mxGeometry width="50" height="50" relative="1" as="geometry">
            <mxPoint x="420" y="130" as="sourcePoint" />
            <mxPoint x="480" y="260" as="targetPoint" />
          </mxGeometry>
        </mxCell>
        <mxCell id="rzbT1TYOIwulQJLnCchb-124" value="" style="endArrow=classic;html=1;rounded=0;entryX=0;entryY=0.5;entryDx=0;entryDy=0;exitX=1;exitY=0.5;exitDx=0;exitDy=0;" edge="1" parent="1" source="rzbT1TYOIwulQJLnCchb-77" target="rzbT1TYOIwulQJLnCchb-119">
          <mxGeometry width="50" height="50" relative="1" as="geometry">
            <mxPoint x="420" y="30" as="sourcePoint" />
            <mxPoint x="500" y="200" as="targetPoint" />
          </mxGeometry>
        </mxCell>
        <mxCell id="rzbT1TYOIwulQJLnCchb-125" value="" style="endArrow=classic;html=1;rounded=0;fontSize=16;entryX=0;entryY=0.5;entryDx=0;entryDy=0;exitX=1;exitY=0.5;exitDx=0;exitDy=0;" edge="1" parent="1" source="rzbT1TYOIwulQJLnCchb-81" target="rzbT1TYOIwulQJLnCchb-117">
          <mxGeometry width="50" height="50" relative="1" as="geometry">
            <mxPoint x="530" y="450" as="sourcePoint" />
            <mxPoint x="610" y="110" as="targetPoint" />
          </mxGeometry>
        </mxCell>
        <mxCell id="rzbT1TYOIwulQJLnCchb-126" value="" style="endArrow=classic;html=1;rounded=0;fontSize=16;entryX=0;entryY=0.5;entryDx=0;entryDy=0;exitX=1;exitY=0.5;exitDx=0;exitDy=0;" edge="1" parent="1" source="rzbT1TYOIwulQJLnCchb-82" target="rzbT1TYOIwulQJLnCchb-118">
          <mxGeometry width="50" height="50" relative="1" as="geometry">
            <mxPoint x="510" y="580" as="sourcePoint" />
            <mxPoint x="590" y="240" as="targetPoint" />
          </mxGeometry>
        </mxCell>
        <mxCell id="rzbT1TYOIwulQJLnCchb-127" value="" style="endArrow=classic;html=1;rounded=0;fontSize=16;exitX=1;exitY=0.5;exitDx=0;exitDy=0;entryX=0;entryY=0.5;entryDx=0;entryDy=0;" edge="1" parent="1" source="rzbT1TYOIwulQJLnCchb-87" target="rzbT1TYOIwulQJLnCchb-119">
          <mxGeometry width="50" height="50" relative="1" as="geometry">
            <mxPoint x="500" y="610" as="sourcePoint" />
            <mxPoint x="480" y="400" as="targetPoint" />
          </mxGeometry>
        </mxCell>
        <mxCell id="rzbT1TYOIwulQJLnCchb-132" value="&lt;span style=&quot;color: rgb(32 , 33 , 36) ; font-family: &amp;#34;roboto&amp;#34; , &amp;#34;arial&amp;#34; , sans-serif ; font-size: 16px ; text-align: left ; background-color: rgb(248 , 206 , 204)&quot;&gt;≥2&lt;/span&gt;" style="ellipse;whiteSpace=wrap;html=1;aspect=fixed;fillColor=#f8cecc;strokeColor=#b85450;" vertex="1" parent="1">
          <mxGeometry x="560" y="160" width="40" height="40" as="geometry" />
        </mxCell>
        <mxCell id="rzbT1TYOIwulQJLnCchb-133" value="&lt;span style=&quot;color: rgb(32 , 33 , 36) ; font-family: &amp;#34;roboto&amp;#34; , &amp;#34;arial&amp;#34; , sans-serif ; font-size: 16px ; text-align: left ; background-color: rgb(248 , 206 , 204)&quot;&gt;≥2&lt;/span&gt;" style="ellipse;whiteSpace=wrap;html=1;aspect=fixed;fillColor=#f8cecc;strokeColor=#b85450;" vertex="1" parent="1">
          <mxGeometry x="560" y="240" width="40" height="40" as="geometry" />
        </mxCell>
        <mxCell id="rzbT1TYOIwulQJLnCchb-134" value="&lt;span style=&quot;color: rgb(32 , 33 , 36) ; font-family: &amp;#34;roboto&amp;#34; , &amp;#34;arial&amp;#34; , sans-serif ; font-size: 16px ; text-align: left ; background-color: rgb(248 , 206 , 204)&quot;&gt;≥2&lt;/span&gt;" style="ellipse;whiteSpace=wrap;html=1;aspect=fixed;fillColor=#f8cecc;strokeColor=#b85450;" vertex="1" parent="1">
          <mxGeometry x="560" y="321" width="40" height="40" as="geometry" />
        </mxCell>
        <mxCell id="rzbT1TYOIwulQJLnCchb-137" value="&lt;span style=&quot;color: rgb(32 , 33 , 36) ; font-family: &amp;#34;roboto&amp;#34; , &amp;#34;arial&amp;#34; , sans-serif ; font-size: 16px ; text-align: left ; background-color: rgb(212 , 225 , 245)&quot;&gt;0&lt;/span&gt;" style="ellipse;whiteSpace=wrap;html=1;aspect=fixed;fillColor=#dae8fc;strokeColor=#6c8ebf;direction=south;" vertex="1" parent="1">
          <mxGeometry x="640" y="240" width="40" height="40" as="geometry" />
        </mxCell>
        <mxCell id="rzbT1TYOIwulQJLnCchb-138" value="" style="endArrow=classic;html=1;rounded=0;fontSize=16;entryX=0.5;entryY=1;entryDx=0;entryDy=0;exitX=1;exitY=0.5;exitDx=0;exitDy=0;" edge="1" parent="1" source="rzbT1TYOIwulQJLnCchb-132" target="rzbT1TYOIwulQJLnCchb-137">
          <mxGeometry width="50" height="50" relative="1" as="geometry">
            <mxPoint x="610" y="110" as="sourcePoint" />
            <mxPoint x="650" y="150" as="targetPoint" />
          </mxGeometry>
        </mxCell>
        <mxCell id="rzbT1TYOIwulQJLnCchb-139" value="" style="endArrow=classic;html=1;rounded=0;fontSize=16;entryX=0.5;entryY=1;entryDx=0;entryDy=0;exitX=1;exitY=0.5;exitDx=0;exitDy=0;" edge="1" parent="1" source="rzbT1TYOIwulQJLnCchb-133" target="rzbT1TYOIwulQJLnCchb-137">
          <mxGeometry width="50" height="50" relative="1" as="geometry">
            <mxPoint x="620" y="300" as="sourcePoint" />
            <mxPoint x="660" y="340" as="targetPoint" />
          </mxGeometry>
        </mxCell>
        <mxCell id="rzbT1TYOIwulQJLnCchb-140" value="" style="endArrow=classic;html=1;rounded=0;fontSize=16;entryX=0.5;entryY=1;entryDx=0;entryDy=0;exitX=1;exitY=0.5;exitDx=0;exitDy=0;" edge="1" parent="1" source="rzbT1TYOIwulQJLnCchb-134" target="rzbT1TYOIwulQJLnCchb-137">
          <mxGeometry width="50" height="50" relative="1" as="geometry">
            <mxPoint x="630" y="321" as="sourcePoint" />
            <mxPoint x="670" y="361" as="targetPoint" />
          </mxGeometry>
        </mxCell>
        <mxCell id="rzbT1TYOIwulQJLnCchb-141" value="" style="endArrow=classic;html=1;rounded=0;fontSize=16;entryX=0;entryY=0.5;entryDx=0;entryDy=0;exitX=1;exitY=0.5;exitDx=0;exitDy=0;" edge="1" parent="1" source="rzbT1TYOIwulQJLnCchb-117" target="rzbT1TYOIwulQJLnCchb-132">
          <mxGeometry width="50" height="50" relative="1" as="geometry">
            <mxPoint x="530" y="100" as="sourcePoint" />
            <mxPoint x="570" y="140" as="targetPoint" />
          </mxGeometry>
        </mxCell>
        <mxCell id="rzbT1TYOIwulQJLnCchb-142" value="" style="endArrow=classic;html=1;rounded=0;fontSize=16;entryX=0;entryY=0.5;entryDx=0;entryDy=0;exitX=1;exitY=0.5;exitDx=0;exitDy=0;" edge="1" parent="1" source="rzbT1TYOIwulQJLnCchb-118" target="rzbT1TYOIwulQJLnCchb-133">
          <mxGeometry width="50" height="50" relative="1" as="geometry">
            <mxPoint x="530" y="190" as="sourcePoint" />
            <mxPoint x="570" y="190" as="targetPoint" />
          </mxGeometry>
        </mxCell>
        <mxCell id="rzbT1TYOIwulQJLnCchb-143" value="" style="endArrow=classic;html=1;rounded=0;fontSize=16;entryX=0;entryY=0.5;entryDx=0;entryDy=0;exitX=1;exitY=0.5;exitDx=0;exitDy=0;" edge="1" parent="1" source="rzbT1TYOIwulQJLnCchb-119" target="rzbT1TYOIwulQJLnCchb-134">
          <mxGeometry width="50" height="50" relative="1" as="geometry">
            <mxPoint x="540" y="200" as="sourcePoint" />
            <mxPoint x="580" y="200" as="targetPoint" />
          </mxGeometry>
        </mxCell>
        <mxCell id="rzbT1TYOIwulQJLnCchb-144" value="&lt;span style=&quot;color: rgb(32 , 33 , 36) ; font-family: &amp;#34;roboto&amp;#34; , &amp;#34;arial&amp;#34; , sans-serif ; font-size: 16px ; text-align: left ; background-color: rgb(248 , 206 , 204)&quot;&gt;≥1&lt;/span&gt;" style="ellipse;whiteSpace=wrap;html=1;aspect=fixed;fillColor=#f8cecc;strokeColor=#b85450;" vertex="1" parent="1">
          <mxGeometry x="720" y="240" width="40" height="40" as="geometry" />
        </mxCell>
        <mxCell id="rzbT1TYOIwulQJLnCchb-145" value="" style="endArrow=classic;html=1;rounded=0;entryX=0;entryY=0.5;entryDx=0;entryDy=0;exitX=1;exitY=0.5;exitDx=0;exitDy=0;" edge="1" parent="1" source="X48cYuM6y2Ta0CUNgX4l-131" target="rzbT1TYOIwulQJLnCchb-116">
          <mxGeometry width="50" height="50" relative="1" as="geometry">
            <mxPoint x="530" y="30" as="sourcePoint" />
            <mxPoint x="570" y="30" as="targetPoint" />
          </mxGeometry>
        </mxCell>
        <mxCell id="rzbT1TYOIwulQJLnCchb-146" value="" style="endArrow=classic;html=1;rounded=0;entryX=0;entryY=0.5;entryDx=0;entryDy=0;exitX=0.5;exitY=0;exitDx=0;exitDy=0;" edge="1" parent="1" source="rzbT1TYOIwulQJLnCchb-137" target="rzbT1TYOIwulQJLnCchb-144">
          <mxGeometry width="50" height="50" relative="1" as="geometry">
            <mxPoint x="690" y="-10" as="sourcePoint" />
            <mxPoint x="730" y="-10" as="targetPoint" />
          </mxGeometry>
        </mxCell>
        <mxCell id="rzbT1TYOIwulQJLnCchb-150" value="activation&lt;br&gt;layer 3" style="text;html=1;strokeColor=none;fillColor=none;align=center;verticalAlign=middle;whiteSpace=wrap;rounded=0;" vertex="1" parent="1">
          <mxGeometry x="540" y="-240" width="60" height="30" as="geometry" />
        </mxCell>
        <mxCell id="rzbT1TYOIwulQJLnCchb-151" value="hidden layer 3" style="text;html=1;strokeColor=none;fillColor=none;align=center;verticalAlign=middle;whiteSpace=wrap;rounded=0;" vertex="1" parent="1">
          <mxGeometry x="460" y="-240" width="60" height="30" as="geometry" />
        </mxCell>
        <mxCell id="rzbT1TYOIwulQJLnCchb-152" value="activation&lt;br&gt;layer 4" style="text;html=1;strokeColor=none;fillColor=none;align=center;verticalAlign=middle;whiteSpace=wrap;rounded=0;" vertex="1" parent="1">
          <mxGeometry x="700" y="-240" width="60" height="30" as="geometry" />
        </mxCell>
        <mxCell id="rzbT1TYOIwulQJLnCchb-153" value="hidden layer 4" style="text;html=1;strokeColor=none;fillColor=none;align=center;verticalAlign=middle;whiteSpace=wrap;rounded=0;" vertex="1" parent="1">
          <mxGeometry x="620" y="-240" width="60" height="30" as="geometry" />
        </mxCell>
        <mxCell id="rzbT1TYOIwulQJLnCchb-154" value="" style="endArrow=classic;html=1;rounded=0;fontSize=16;entryX=0;entryY=0.5;entryDx=0;entryDy=0;exitX=1;exitY=0.5;exitDx=0;exitDy=0;" edge="1" parent="1" source="rzbT1TYOIwulQJLnCchb-144" target="X48cYuM6y2Ta0CUNgX4l-129">
          <mxGeometry width="50" height="50" relative="1" as="geometry">
            <mxPoint x="750" y="90" as="sourcePoint" />
            <mxPoint x="790" y="250" as="targetPoint" />
          </mxGeometry>
        </mxCell>
        <mxCell id="rzbT1TYOIwulQJLnCchb-155" value="&lt;font style=&quot;font-size: 20px;&quot;&gt;2&lt;/font&gt;" style="text;html=1;align=center;verticalAlign=middle;whiteSpace=wrap;rounded=0;labelBackgroundColor=#FFFFFF;" vertex="1" parent="1">
          <mxGeometry x="760" y="200" width="60" height="30" as="geometry" />
        </mxCell>
        <mxCell id="rzbT1TYOIwulQJLnCchb-156" value="&lt;font style=&quot;font-size: 20px&quot;&gt;1&lt;/font&gt;" style="text;html=1;align=center;verticalAlign=middle;whiteSpace=wrap;rounded=0;labelBackgroundColor=#FFFFFF;" vertex="1" parent="1">
          <mxGeometry x="760" y="20" width="60" height="30" as="geometry" />
        </mxCell>
        <mxCell id="rzbT1TYOIwulQJLnCchb-158" style="edgeStyle=orthogonalEdgeStyle;rounded=0;orthogonalLoop=1;jettySize=auto;html=1;exitX=0.5;exitY=0;exitDx=0;exitDy=0;entryX=0.5;entryY=1;entryDx=0;entryDy=0;fontSize=20;" edge="1" parent="1" source="rzbT1TYOIwulQJLnCchb-157" target="X48cYuM6y2Ta0CUNgX4l-129">
          <mxGeometry relative="1" as="geometry" />
        </mxCell>
        <mxCell id="rzbT1TYOIwulQJLnCchb-157" value="&lt;span style=&quot;&quot;&gt;If y = 2: output [1, 1] or 1&lt;br&gt;If y = 1: output [0, 0] or 0&lt;br&gt;&amp;nbsp;If y = 0: output [1, 0] or -1&lt;br&gt;Depends on the required dimensions of the output&lt;/span&gt;" style="rounded=1;whiteSpace=wrap;html=1;labelBackgroundColor=#D5E8D4;fontSize=20;fillColor=#d5e8d4;strokeColor=#82b366;" vertex="1" parent="1">
          <mxGeometry x="645" y="350" width="350" height="161" as="geometry" />
        </mxCell>
        <mxCell id="rzbT1TYOIwulQJLnCchb-160" value="input" style="text;html=1;strokeColor=none;fillColor=none;align=center;verticalAlign=middle;whiteSpace=wrap;rounded=0;" vertex="1" parent="1">
          <mxGeometry x="-40" y="-240" width="60" height="30" as="geometry" />
        </mxCell>
        <mxCell id="rzbT1TYOIwulQJLnCchb-161" value="output" style="text;html=1;strokeColor=none;fillColor=none;align=center;verticalAlign=middle;whiteSpace=wrap;rounded=0;" vertex="1" parent="1">
          <mxGeometry x="780" y="-240" width="60" height="30" as="geometry" />
        </mxCell>
      </root>
    </mxGraphModel>
  </diagram>
  <diagram id="rmPlBpL0N3QYa53feP91" name="Page-2">
    <mxGraphModel dx="539" dy="260" grid="1" gridSize="10" guides="1" tooltips="1" connect="1" arrows="1" fold="1" page="1" pageScale="1" pageWidth="600" pageHeight="300" math="0" shadow="0">
      <root>
        <mxCell id="XKCaaaJZAax6zIz69fg2-0" />
        <mxCell id="XKCaaaJZAax6zIz69fg2-1" parent="XKCaaaJZAax6zIz69fg2-0" />
        <mxCell id="XKCaaaJZAax6zIz69fg2-3" value="" style="rounded=0;whiteSpace=wrap;html=1;labelBackgroundColor=#D5E8D4;fontSize=20;fillColor=#dae8fc;strokeColor=default;" vertex="1" parent="XKCaaaJZAax6zIz69fg2-1">
          <mxGeometry x="80" y="40" width="80" height="100" as="geometry" />
        </mxCell>
        <mxCell id="XKCaaaJZAax6zIz69fg2-4" value="" style="rounded=0;whiteSpace=wrap;html=1;labelBackgroundColor=#D5E8D4;fontSize=20;strokeColor=default;" vertex="1" parent="XKCaaaJZAax6zIz69fg2-1">
          <mxGeometry x="100" y="40" width="40" height="70" as="geometry" />
        </mxCell>
        <mxCell id="XKCaaaJZAax6zIz69fg2-5" value="" style="rounded=0;whiteSpace=wrap;html=1;labelBackgroundColor=#D5E8D4;fontSize=20;fillColor=#ffe6cc;strokeColor=default;" vertex="1" parent="XKCaaaJZAax6zIz69fg2-1">
          <mxGeometry x="210" y="40" width="40" height="20" as="geometry" />
        </mxCell>
        <mxCell id="XKCaaaJZAax6zIz69fg2-6" value="" style="rounded=0;whiteSpace=wrap;html=1;labelBackgroundColor=#D5E8D4;fontSize=20;fillColor=#ffe6cc;strokeColor=default;" vertex="1" parent="XKCaaaJZAax6zIz69fg2-1">
          <mxGeometry x="210" y="80" width="20" height="20" as="geometry" />
        </mxCell>
        <mxCell id="XKCaaaJZAax6zIz69fg2-7" value="" style="rounded=0;whiteSpace=wrap;html=1;labelBackgroundColor=#D5E8D4;fontSize=20;fillColor=#ffe6cc;strokeColor=default;" vertex="1" parent="XKCaaaJZAax6zIz69fg2-1">
          <mxGeometry x="190" y="40" width="20" height="100" as="geometry" />
        </mxCell>
        <mxCell id="XKCaaaJZAax6zIz69fg2-9" value="f2" style="text;html=1;strokeColor=none;fillColor=none;align=center;verticalAlign=middle;whiteSpace=wrap;rounded=0;labelBackgroundColor=none;fontSize=15;" vertex="1" parent="XKCaaaJZAax6zIz69fg2-1">
          <mxGeometry x="200" y="35" width="60" height="30" as="geometry" />
        </mxCell>
        <mxCell id="XKCaaaJZAax6zIz69fg2-12" value="f1" style="text;html=1;strokeColor=none;fillColor=none;align=center;verticalAlign=middle;whiteSpace=wrap;rounded=0;labelBackgroundColor=none;fontSize=15;" vertex="1" parent="XKCaaaJZAax6zIz69fg2-1">
          <mxGeometry x="190" y="75" width="60" height="30" as="geometry" />
        </mxCell>
        <mxCell id="XKCaaaJZAax6zIz69fg2-13" value="f3" style="text;html=1;strokeColor=none;fillColor=none;align=center;verticalAlign=middle;whiteSpace=wrap;rounded=0;labelBackgroundColor=none;fontSize=15;" vertex="1" parent="XKCaaaJZAax6zIz69fg2-1">
          <mxGeometry x="170" y="50" width="60" height="30" as="geometry" />
        </mxCell>
        <mxCell id="XKCaaaJZAax6zIz69fg2-15" value="u1" style="text;html=1;strokeColor=none;fillColor=none;align=center;verticalAlign=middle;whiteSpace=wrap;rounded=0;labelBackgroundColor=none;fontSize=15;" vertex="1" parent="XKCaaaJZAax6zIz69fg2-1">
          <mxGeometry x="90" y="110" width="60" height="30" as="geometry" />
        </mxCell>
        <mxCell id="XKCaaaJZAax6zIz69fg2-19" value="u2" style="text;html=1;strokeColor=none;fillColor=none;align=center;verticalAlign=middle;whiteSpace=wrap;rounded=0;labelBackgroundColor=none;fontSize=15;" vertex="1" parent="XKCaaaJZAax6zIz69fg2-1">
          <mxGeometry x="90" y="60" width="60" height="30" as="geometry" />
        </mxCell>
      </root>
    </mxGraphModel>
  </diagram>
</mxfile>
